<svg width="515" height="47" viewBox="0 0 515 47" fill="none" xmlns="http://www.w3.org/2000/svg">
<path d="M28.1875 4.36816V3.36914C28.1875 3.09766 28.1562 2.85742 28.0938 2.64844C28.0312 2.4375 27.9414 2.25977 27.8242 2.11523C27.7051 1.9707 27.5596 1.86133 27.3877 1.78711C27.2178 1.71094 27.0234 1.67285 26.8047 1.67285C26.5879 1.67285 26.3936 1.71094 26.2217 1.78711C26.0518 1.86133 25.9082 1.9707 25.791 2.11523C25.6719 2.25977 25.5811 2.4375 25.5186 2.64844C25.4561 2.85742 25.4248 3.09766 25.4248 3.36914V4.36816C25.4248 4.63965 25.4561 4.88086 25.5186 5.0918C25.5811 5.30078 25.6719 5.47656 25.791 5.61914C25.9102 5.76562 26.0557 5.87598 26.2275 5.9502C26.3994 6.02246 26.5938 6.05859 26.8105 6.05859C27.0293 6.05859 27.2236 6.02148 27.3936 5.94727C27.5635 5.87305 27.707 5.76367 27.8242 5.61914C27.9414 5.47656 28.0312 5.30078 28.0938 5.0918C28.1562 4.88086 28.1875 4.63965 28.1875 4.36816ZM25.9697 4.25977C25.9697 4.20898 25.9697 4.15918 25.9697 4.11035C25.9697 4.06152 25.9697 4.0127 25.9697 3.96387V3.24902C25.9697 3.0498 25.9893 2.875 26.0283 2.72461C26.0693 2.57227 26.1309 2.44824 26.2129 2.35254C26.2812 2.27637 26.3643 2.21875 26.4619 2.17969C26.5615 2.13867 26.6758 2.11816 26.8047 2.11816C26.9316 2.11816 27.043 2.13672 27.1387 2.17383C27.2363 2.21094 27.3184 2.2666 27.3848 2.34082C27.4531 2.41309 27.5068 2.50391 27.5459 2.61328C27.5869 2.7207 27.6152 2.84473 27.6309 2.98535L25.9697 4.25977ZM27.6426 4.48242C27.6426 4.69141 27.6211 4.87305 27.5781 5.02734C27.5371 5.18164 27.4717 5.30664 27.3818 5.40234C27.3154 5.47266 27.2344 5.52637 27.1387 5.56348C27.043 5.60059 26.9336 5.61914 26.8105 5.61914C26.6934 5.61914 26.5879 5.60254 26.4941 5.56934C26.4004 5.53418 26.3203 5.4834 26.2539 5.41699C26.1816 5.34668 26.123 5.25781 26.0781 5.15039C26.0332 5.04102 26.002 4.91504 25.9844 4.77246L27.6426 3.50391C27.6426 3.55859 27.6426 3.62793 27.6426 3.71191C27.6426 3.79395 27.6426 3.84961 27.6426 3.87891V4.48242ZM30.4229 4.00488L29.585 2.83008H28.958L30.1387 4.39746L28.9258 6H29.5586L30.4346 4.79297L31.3105 6H31.9375L30.7246 4.39746L31.9053 2.83008H31.2695L30.4229 4.00488ZM33.3496 3.60645V4.0459H33.7363C33.8711 4.0459 33.9941 4.06152 34.1055 4.09277C34.2188 4.12402 34.3154 4.17188 34.3955 4.23633C34.4736 4.30078 34.5342 4.38184 34.5771 4.47949C34.6221 4.5752 34.6445 4.68945 34.6445 4.82227C34.6445 4.95703 34.625 5.07422 34.5859 5.17383C34.5488 5.27148 34.4951 5.35352 34.4248 5.41992C34.3545 5.48633 34.2695 5.53613 34.1699 5.56934C34.0703 5.60059 33.959 5.61621 33.8359 5.61621C33.7129 5.61621 33.6006 5.59863 33.499 5.56348C33.3994 5.52832 33.3145 5.47852 33.2441 5.41406C33.1738 5.34961 33.1191 5.27148 33.0801 5.17969C33.043 5.08789 33.0244 4.98633 33.0244 4.875H32.4824C32.4824 5.0625 32.5176 5.22949 32.5879 5.37598C32.6602 5.52246 32.7568 5.64648 32.8779 5.74805C32.999 5.84961 33.1416 5.92676 33.3057 5.97949C33.4717 6.03223 33.6484 6.05859 33.8359 6.05859C34.0273 6.05859 34.2051 6.03125 34.3691 5.97656C34.5352 5.91992 34.6787 5.83789 34.7998 5.73047C34.9209 5.625 35.0156 5.49512 35.084 5.34082C35.1523 5.18652 35.1865 5.00977 35.1865 4.81055C35.1865 4.71289 35.1748 4.61426 35.1514 4.51465C35.1299 4.41504 35.0918 4.32031 35.0371 4.23047C34.9805 4.14062 34.9053 4.05957 34.8115 3.9873C34.7197 3.91504 34.6045 3.85645 34.4658 3.81152C34.5811 3.7627 34.6797 3.70215 34.7617 3.62988C34.8457 3.55566 34.9141 3.47656 34.9668 3.39258C35.0195 3.31055 35.0586 3.22559 35.084 3.1377C35.1094 3.0498 35.1221 2.96484 35.1221 2.88281C35.1221 2.68555 35.0908 2.51172 35.0283 2.36133C34.9658 2.21094 34.8779 2.08496 34.7646 1.9834C34.6514 1.88184 34.5156 1.80566 34.3574 1.75488C34.1992 1.70215 34.0244 1.67578 33.833 1.67578C33.6357 1.67578 33.4561 1.70703 33.2939 1.76953C33.1338 1.83008 32.9961 1.91309 32.8809 2.01855C32.7656 2.12598 32.6758 2.25195 32.6113 2.39648C32.5488 2.53906 32.5176 2.69141 32.5176 2.85352H33.0625C33.0625 2.74219 33.0811 2.6416 33.1182 2.55176C33.1553 2.46191 33.208 2.38477 33.2764 2.32031C33.3428 2.25586 33.4229 2.20703 33.5166 2.17383C33.6123 2.13867 33.7178 2.12109 33.833 2.12109C33.9521 2.12109 34.0576 2.13672 34.1494 2.16797C34.2432 2.19727 34.3213 2.24219 34.3838 2.30273C34.4482 2.36523 34.4971 2.44434 34.5303 2.54004C34.5635 2.63379 34.5801 2.74414 34.5801 2.87109C34.5801 2.97852 34.5615 3.07715 34.5244 3.16699C34.4873 3.25684 34.4336 3.33398 34.3633 3.39844C34.291 3.46289 34.2021 3.51367 34.0967 3.55078C33.9932 3.58789 33.873 3.60645 33.7363 3.60645H33.3496ZM38.998 4.36816V3.36914C38.998 3.09766 38.9668 2.85742 38.9043 2.64844C38.8418 2.4375 38.752 2.25977 38.6348 2.11523C38.5156 1.9707 38.3701 1.86133 38.1982 1.78711C38.0283 1.71094 37.834 1.67285 37.6152 1.67285C37.3984 1.67285 37.2041 1.71094 37.0322 1.78711C36.8623 1.86133 36.7188 1.9707 36.6016 2.11523C36.4824 2.25977 36.3916 2.4375 36.3291 2.64844C36.2666 2.85742 36.2354 3.09766 36.2354 3.36914V4.36816C36.2354 4.63965 36.2666 4.88086 36.3291 5.0918C36.3916 5.30078 36.4824 5.47656 36.6016 5.61914C36.7207 5.76562 36.8662 5.87598 37.0381 5.9502C37.21 6.02246 37.4043 6.05859 37.6211 6.05859C37.8398 6.05859 38.0342 6.02148 38.2041 5.94727C38.374 5.87305 38.5176 5.76367 38.6348 5.61914C38.752 5.47656 38.8418 5.30078 38.9043 5.0918C38.9668 4.88086 38.998 4.63965 38.998 4.36816ZM36.7803 4.25977C36.7803 4.20898 36.7803 4.15918 36.7803 4.11035C36.7803 4.06152 36.7803 4.0127 36.7803 3.96387V3.24902C36.7803 3.0498 36.7998 2.875 36.8389 2.72461C36.8799 2.57227 36.9414 2.44824 37.0234 2.35254C37.0918 2.27637 37.1748 2.21875 37.2725 2.17969C37.3721 2.13867 37.4863 2.11816 37.6152 2.11816C37.7422 2.11816 37.8535 2.13672 37.9492 2.17383C38.0469 2.21094 38.1289 2.2666 38.1953 2.34082C38.2637 2.41309 38.3174 2.50391 38.3564 2.61328C38.3975 2.7207 38.4258 2.84473 38.4414 2.98535L36.7803 4.25977ZM38.4531 4.48242C38.4531 4.69141 38.4316 4.87305 38.3887 5.02734C38.3477 5.18164 38.2822 5.30664 38.1924 5.40234C38.126 5.47266 38.0449 5.52637 37.9492 5.56348C37.8535 5.60059 37.7441 5.61914 37.6211 5.61914C37.5039 5.61914 37.3984 5.60254 37.3047 5.56934C37.2109 5.53418 37.1309 5.4834 37.0645 5.41699C36.9922 5.34668 36.9336 5.25781 36.8887 5.15039C36.8438 5.04102 36.8125 4.91504 36.7949 4.77246L38.4531 3.50391C38.4531 3.55859 38.4531 3.62793 38.4531 3.71191C38.4531 3.79395 38.4531 3.84961 38.4531 3.87891V4.48242Z" fill="black"/>
<path d="M144.188 4.36816V3.36914C144.188 3.09766 144.156 2.85742 144.094 2.64844C144.031 2.4375 143.941 2.25977 143.824 2.11523C143.705 1.9707 143.56 1.86133 143.388 1.78711C143.218 1.71094 143.023 1.67285 142.805 1.67285C142.588 1.67285 142.394 1.71094 142.222 1.78711C142.052 1.86133 141.908 1.9707 141.791 2.11523C141.672 2.25977 141.581 2.4375 141.519 2.64844C141.456 2.85742 141.425 3.09766 141.425 3.36914V4.36816C141.425 4.63965 141.456 4.88086 141.519 5.0918C141.581 5.30078 141.672 5.47656 141.791 5.61914C141.91 5.76562 142.056 5.87598 142.228 5.9502C142.399 6.02246 142.594 6.05859 142.811 6.05859C143.029 6.05859 143.224 6.02148 143.394 5.94727C143.563 5.87305 143.707 5.76367 143.824 5.61914C143.941 5.47656 144.031 5.30078 144.094 5.0918C144.156 4.88086 144.188 4.63965 144.188 4.36816ZM141.97 4.25977C141.97 4.20898 141.97 4.15918 141.97 4.11035C141.97 4.06152 141.97 4.0127 141.97 3.96387V3.24902C141.97 3.0498 141.989 2.875 142.028 2.72461C142.069 2.57227 142.131 2.44824 142.213 2.35254C142.281 2.27637 142.364 2.21875 142.462 2.17969C142.562 2.13867 142.676 2.11816 142.805 2.11816C142.932 2.11816 143.043 2.13672 143.139 2.17383C143.236 2.21094 143.318 2.2666 143.385 2.34082C143.453 2.41309 143.507 2.50391 143.546 2.61328C143.587 2.7207 143.615 2.84473 143.631 2.98535L141.97 4.25977ZM143.643 4.48242C143.643 4.69141 143.621 4.87305 143.578 5.02734C143.537 5.18164 143.472 5.30664 143.382 5.40234C143.315 5.47266 143.234 5.52637 143.139 5.56348C143.043 5.60059 142.934 5.61914 142.811 5.61914C142.693 5.61914 142.588 5.60254 142.494 5.56934C142.4 5.53418 142.32 5.4834 142.254 5.41699C142.182 5.34668 142.123 5.25781 142.078 5.15039C142.033 5.04102 142.002 4.91504 141.984 4.77246L143.643 3.50391C143.643 3.55859 143.643 3.62793 143.643 3.71191C143.643 3.79395 143.643 3.84961 143.643 3.87891V4.48242ZM146.423 4.00488L145.585 2.83008H144.958L146.139 4.39746L144.926 6H145.559L146.435 4.79297L147.311 6H147.938L146.725 4.39746L147.905 2.83008H147.27L146.423 4.00488ZM149.35 3.60645V4.0459H149.736C149.871 4.0459 149.994 4.06152 150.105 4.09277C150.219 4.12402 150.315 4.17188 150.396 4.23633C150.474 4.30078 150.534 4.38184 150.577 4.47949C150.622 4.5752 150.645 4.68945 150.645 4.82227C150.645 4.95703 150.625 5.07422 150.586 5.17383C150.549 5.27148 150.495 5.35352 150.425 5.41992C150.354 5.48633 150.27 5.53613 150.17 5.56934C150.07 5.60059 149.959 5.61621 149.836 5.61621C149.713 5.61621 149.601 5.59863 149.499 5.56348C149.399 5.52832 149.314 5.47852 149.244 5.41406C149.174 5.34961 149.119 5.27148 149.08 5.17969C149.043 5.08789 149.024 4.98633 149.024 4.875H148.482C148.482 5.0625 148.518 5.22949 148.588 5.37598C148.66 5.52246 148.757 5.64648 148.878 5.74805C148.999 5.84961 149.142 5.92676 149.306 5.97949C149.472 6.03223 149.648 6.05859 149.836 6.05859C150.027 6.05859 150.205 6.03125 150.369 5.97656C150.535 5.91992 150.679 5.83789 150.8 5.73047C150.921 5.625 151.016 5.49512 151.084 5.34082C151.152 5.18652 151.187 5.00977 151.187 4.81055C151.187 4.71289 151.175 4.61426 151.151 4.51465C151.13 4.41504 151.092 4.32031 151.037 4.23047C150.98 4.14062 150.905 4.05957 150.812 3.9873C150.72 3.91504 150.604 3.85645 150.466 3.81152C150.581 3.7627 150.68 3.70215 150.762 3.62988C150.846 3.55566 150.914 3.47656 150.967 3.39258C151.02 3.31055 151.059 3.22559 151.084 3.1377C151.109 3.0498 151.122 2.96484 151.122 2.88281C151.122 2.68555 151.091 2.51172 151.028 2.36133C150.966 2.21094 150.878 2.08496 150.765 1.9834C150.651 1.88184 150.516 1.80566 150.357 1.75488C150.199 1.70215 150.024 1.67578 149.833 1.67578C149.636 1.67578 149.456 1.70703 149.294 1.76953C149.134 1.83008 148.996 1.91309 148.881 2.01855C148.766 2.12598 148.676 2.25195 148.611 2.39648C148.549 2.53906 148.518 2.69141 148.518 2.85352H149.062C149.062 2.74219 149.081 2.6416 149.118 2.55176C149.155 2.46191 149.208 2.38477 149.276 2.32031C149.343 2.25586 149.423 2.20703 149.517 2.17383C149.612 2.13867 149.718 2.12109 149.833 2.12109C149.952 2.12109 150.058 2.13672 150.149 2.16797C150.243 2.19727 150.321 2.24219 150.384 2.30273C150.448 2.36523 150.497 2.44434 150.53 2.54004C150.563 2.63379 150.58 2.74414 150.58 2.87109C150.58 2.97852 150.562 3.07715 150.524 3.16699C150.487 3.25684 150.434 3.33398 150.363 3.39844C150.291 3.46289 150.202 3.51367 150.097 3.55078C149.993 3.58789 149.873 3.60645 149.736 3.60645H149.35ZM154.518 4.56738V1.73438H153.94L152.03 4.69043V5.00977H153.976V6H154.518V5.00977H155.112V4.56738H154.518ZM152.631 4.56738L153.888 2.61914L153.976 2.45508V4.56738H152.631Z" fill="black"/>
<path d="M260.188 4.36816V3.36914C260.188 3.09766 260.156 2.85742 260.094 2.64844C260.031 2.4375 259.941 2.25977 259.824 2.11523C259.705 1.9707 259.56 1.86133 259.388 1.78711C259.218 1.71094 259.023 1.67285 258.805 1.67285C258.588 1.67285 258.394 1.71094 258.222 1.78711C258.052 1.86133 257.908 1.9707 257.791 2.11523C257.672 2.25977 257.581 2.4375 257.519 2.64844C257.456 2.85742 257.425 3.09766 257.425 3.36914V4.36816C257.425 4.63965 257.456 4.88086 257.519 5.0918C257.581 5.30078 257.672 5.47656 257.791 5.61914C257.91 5.76562 258.056 5.87598 258.228 5.9502C258.399 6.02246 258.594 6.05859 258.811 6.05859C259.029 6.05859 259.224 6.02148 259.394 5.94727C259.563 5.87305 259.707 5.76367 259.824 5.61914C259.941 5.47656 260.031 5.30078 260.094 5.0918C260.156 4.88086 260.188 4.63965 260.188 4.36816ZM257.97 4.25977C257.97 4.20898 257.97 4.15918 257.97 4.11035C257.97 4.06152 257.97 4.0127 257.97 3.96387V3.24902C257.97 3.0498 257.989 2.875 258.028 2.72461C258.069 2.57227 258.131 2.44824 258.213 2.35254C258.281 2.27637 258.364 2.21875 258.462 2.17969C258.562 2.13867 258.676 2.11816 258.805 2.11816C258.932 2.11816 259.043 2.13672 259.139 2.17383C259.236 2.21094 259.318 2.2666 259.385 2.34082C259.453 2.41309 259.507 2.50391 259.546 2.61328C259.587 2.7207 259.615 2.84473 259.631 2.98535L257.97 4.25977ZM259.643 4.48242C259.643 4.69141 259.621 4.87305 259.578 5.02734C259.537 5.18164 259.472 5.30664 259.382 5.40234C259.315 5.47266 259.234 5.52637 259.139 5.56348C259.043 5.60059 258.934 5.61914 258.811 5.61914C258.693 5.61914 258.588 5.60254 258.494 5.56934C258.4 5.53418 258.32 5.4834 258.254 5.41699C258.182 5.34668 258.123 5.25781 258.078 5.15039C258.033 5.04102 258.002 4.91504 257.984 4.77246L259.643 3.50391C259.643 3.55859 259.643 3.62793 259.643 3.71191C259.643 3.79395 259.643 3.84961 259.643 3.87891V4.48242ZM262.423 4.00488L261.585 2.83008H260.958L262.139 4.39746L260.926 6H261.559L262.435 4.79297L263.311 6H263.938L262.725 4.39746L263.905 2.83008H263.27L262.423 4.00488ZM265.35 3.60645V4.0459H265.736C265.871 4.0459 265.994 4.06152 266.105 4.09277C266.219 4.12402 266.315 4.17188 266.396 4.23633C266.474 4.30078 266.534 4.38184 266.577 4.47949C266.622 4.5752 266.645 4.68945 266.645 4.82227C266.645 4.95703 266.625 5.07422 266.586 5.17383C266.549 5.27148 266.495 5.35352 266.425 5.41992C266.354 5.48633 266.27 5.53613 266.17 5.56934C266.07 5.60059 265.959 5.61621 265.836 5.61621C265.713 5.61621 265.601 5.59863 265.499 5.56348C265.399 5.52832 265.314 5.47852 265.244 5.41406C265.174 5.34961 265.119 5.27148 265.08 5.17969C265.043 5.08789 265.024 4.98633 265.024 4.875H264.482C264.482 5.0625 264.518 5.22949 264.588 5.37598C264.66 5.52246 264.757 5.64648 264.878 5.74805C264.999 5.84961 265.142 5.92676 265.306 5.97949C265.472 6.03223 265.648 6.05859 265.836 6.05859C266.027 6.05859 266.205 6.03125 266.369 5.97656C266.535 5.91992 266.679 5.83789 266.8 5.73047C266.921 5.625 267.016 5.49512 267.084 5.34082C267.152 5.18652 267.187 5.00977 267.187 4.81055C267.187 4.71289 267.175 4.61426 267.151 4.51465C267.13 4.41504 267.092 4.32031 267.037 4.23047C266.98 4.14062 266.905 4.05957 266.812 3.9873C266.72 3.91504 266.604 3.85645 266.466 3.81152C266.581 3.7627 266.68 3.70215 266.762 3.62988C266.846 3.55566 266.914 3.47656 266.967 3.39258C267.02 3.31055 267.059 3.22559 267.084 3.1377C267.109 3.0498 267.122 2.96484 267.122 2.88281C267.122 2.68555 267.091 2.51172 267.028 2.36133C266.966 2.21094 266.878 2.08496 266.765 1.9834C266.651 1.88184 266.516 1.80566 266.357 1.75488C266.199 1.70215 266.024 1.67578 265.833 1.67578C265.636 1.67578 265.456 1.70703 265.294 1.76953C265.134 1.83008 264.996 1.91309 264.881 2.01855C264.766 2.12598 264.676 2.25195 264.611 2.39648C264.549 2.53906 264.518 2.69141 264.518 2.85352H265.062C265.062 2.74219 265.081 2.6416 265.118 2.55176C265.155 2.46191 265.208 2.38477 265.276 2.32031C265.343 2.25586 265.423 2.20703 265.517 2.17383C265.612 2.13867 265.718 2.12109 265.833 2.12109C265.952 2.12109 266.058 2.13672 266.149 2.16797C266.243 2.19727 266.321 2.24219 266.384 2.30273C266.448 2.36523 266.497 2.44434 266.53 2.54004C266.563 2.63379 266.58 2.74414 266.58 2.87109C266.58 2.97852 266.562 3.07715 266.524 3.16699C266.487 3.25684 266.434 3.33398 266.363 3.39844C266.291 3.46289 266.202 3.51367 266.097 3.55078C265.993 3.58789 265.873 3.60645 265.736 3.60645H265.35ZM270.945 2.84766C270.945 2.66211 270.913 2.49707 270.849 2.35254C270.784 2.20605 270.695 2.08301 270.582 1.9834C270.469 1.88379 270.335 1.80762 270.181 1.75488C270.026 1.70215 269.859 1.67578 269.68 1.67578C269.498 1.67578 269.33 1.70215 269.176 1.75488C269.023 1.80762 268.893 1.88379 268.783 1.9834C268.672 2.08301 268.585 2.20605 268.522 2.35254C268.46 2.49707 268.429 2.66211 268.429 2.84766C268.429 2.95312 268.443 3.05371 268.473 3.14941C268.502 3.24512 268.543 3.33301 268.596 3.41309C268.648 3.49512 268.713 3.56934 268.789 3.63574C268.865 3.7002 268.95 3.75586 269.044 3.80273C268.935 3.84961 268.836 3.9082 268.748 3.97852C268.66 4.04883 268.585 4.12793 268.522 4.21582C268.46 4.30566 268.412 4.4043 268.379 4.51172C268.346 4.61719 268.329 4.72949 268.329 4.84863C268.329 5.04395 268.364 5.2168 268.435 5.36719C268.505 5.51758 268.602 5.64355 268.725 5.74512C268.846 5.84863 268.988 5.92676 269.152 5.97949C269.318 6.03223 269.497 6.05859 269.688 6.05859C269.876 6.05859 270.052 6.03223 270.216 5.97949C270.38 5.9248 270.523 5.8457 270.646 5.74219C270.768 5.64062 270.863 5.51465 270.934 5.36426C271.006 5.21387 271.042 5.04199 271.042 4.84863C271.042 4.72949 271.024 4.61719 270.989 4.51172C270.956 4.40625 270.908 4.30859 270.846 4.21875C270.781 4.12891 270.704 4.0498 270.614 3.98145C270.526 3.91113 270.428 3.85254 270.318 3.80566C270.381 3.77441 270.439 3.73926 270.494 3.7002C270.549 3.66113 270.599 3.61914 270.644 3.57422C270.737 3.48047 270.811 3.37207 270.863 3.24902C270.916 3.12402 270.943 2.99023 270.945 2.84766ZM270.5 4.83691C270.5 4.95996 270.479 5.07031 270.438 5.16797C270.399 5.26367 270.345 5.34473 270.274 5.41113C270.202 5.47754 270.116 5.52832 270.017 5.56348C269.917 5.59863 269.808 5.61621 269.688 5.61621C269.563 5.61621 269.45 5.59863 269.349 5.56348C269.249 5.52832 269.164 5.47754 269.094 5.41113C269.023 5.34473 268.969 5.26367 268.93 5.16797C268.893 5.07031 268.874 4.95996 268.874 4.83691C268.874 4.71777 268.893 4.6084 268.93 4.50879C268.969 4.40918 269.023 4.32324 269.094 4.25098C269.164 4.18066 269.249 4.12598 269.349 4.08691C269.448 4.04785 269.56 4.02832 269.683 4.02832C269.802 4.02832 269.911 4.04785 270.011 4.08691C270.112 4.12598 270.199 4.18066 270.271 4.25098C270.344 4.32324 270.399 4.40918 270.438 4.50879C270.479 4.6084 270.5 4.71777 270.5 4.83691ZM270.4 2.85645C270.4 2.96582 270.383 3.06543 270.348 3.15527C270.312 3.24512 270.264 3.32129 270.201 3.38379C270.137 3.44824 270.061 3.49805 269.973 3.5332C269.885 3.56641 269.789 3.58301 269.686 3.58301C269.58 3.58301 269.483 3.56641 269.396 3.5332C269.31 3.49805 269.235 3.44824 269.173 3.38379C269.108 3.32129 269.059 3.24609 269.023 3.1582C268.99 3.06836 268.974 2.96777 268.974 2.85645C268.974 2.74512 268.99 2.64453 269.023 2.55469C269.059 2.46289 269.107 2.38477 269.17 2.32031C269.232 2.25586 269.307 2.20703 269.393 2.17383C269.479 2.13867 269.574 2.12109 269.68 2.12109C269.785 2.12109 269.882 2.13965 269.97 2.17676C270.058 2.21191 270.134 2.26172 270.198 2.32617C270.261 2.39258 270.31 2.4707 270.345 2.56055C270.382 2.65039 270.4 2.74902 270.4 2.85645Z" fill="black"/>
<g filter="url(#filter0_d_9_428)">
<rect x="25" y="8" width="116" height="30" fill="#EEEEEE"/>
<rect x="25" y="8" width="116" height="30" stroke="black"/>
</g>
<g filter="url(#filter1_d_9_428)">
<rect x="141" y="8" width="116" height="30" fill="#EEEEEE"/>
<rect x="141" y="8" width="116" height="30" stroke="black"/>
</g>
<g filter="url(#filter2_d_9_428)">
<rect x="257" y="8" width="116" height="30" fill="#EEEEEE"/>
<rect x="257" y="8" width="116" height="30" stroke="black"/>
</g>
<path d="M82.252 28V27.1152H77.9688L80.2598 24.6309C80.4746 24.3965 80.6777 24.1621 80.8691 23.9277C81.0645 23.6895 81.2363 23.4492 81.3848 23.207C81.5293 22.9648 81.6445 22.7207 81.7305 22.4746C81.8164 22.2246 81.8594 21.9727 81.8594 21.7188C81.8594 21.3789 81.7988 21.0645 81.6777 20.7754C81.5605 20.4863 81.3906 20.2363 81.168 20.0254C80.9453 19.8145 80.6719 19.6504 80.3477 19.5332C80.0273 19.4121 79.666 19.3516 79.2637 19.3516C78.8262 19.3516 78.4355 19.4219 78.0918 19.5625C77.752 19.7031 77.4648 19.8926 77.2305 20.1309C76.9922 20.3691 76.8105 20.6484 76.6855 20.9688C76.5605 21.2852 76.498 21.623 76.498 21.9824H77.5879C77.5879 21.7168 77.6211 21.4766 77.6875 21.2617C77.7578 21.0469 77.8633 20.8633 78.0039 20.7109C78.1406 20.5625 78.3125 20.4473 78.5195 20.3652C78.7305 20.2832 78.9785 20.2422 79.2637 20.2422C79.498 20.2422 79.707 20.2832 79.8906 20.3652C80.0781 20.4434 80.2383 20.5508 80.3711 20.6875C80.5 20.8242 80.5977 20.9863 80.6641 21.1738C80.7344 21.3574 80.7695 21.5547 80.7695 21.7656C80.7695 21.9375 80.748 22.1055 80.7051 22.2695C80.6621 22.4297 80.5898 22.5996 80.4883 22.7793C80.3867 22.9629 80.252 23.1621 80.084 23.377C79.916 23.5918 79.707 23.8379 79.457 24.1152L76.6621 27.2207V28H82.252ZM89.6289 20.0781V19.4688H83.8633V20.418H88.4805L84.959 28H86.0957L89.6289 20.0781Z" fill="black"/>
<path d="M198.252 28V27.1152H193.969L196.26 24.6309C196.475 24.3965 196.678 24.1621 196.869 23.9277C197.064 23.6895 197.236 23.4492 197.385 23.207C197.529 22.9648 197.645 22.7207 197.73 22.4746C197.816 22.2246 197.859 21.9727 197.859 21.7188C197.859 21.3789 197.799 21.0645 197.678 20.7754C197.561 20.4863 197.391 20.2363 197.168 20.0254C196.945 19.8145 196.672 19.6504 196.348 19.5332C196.027 19.4121 195.666 19.3516 195.264 19.3516C194.826 19.3516 194.436 19.4219 194.092 19.5625C193.752 19.7031 193.465 19.8926 193.23 20.1309C192.992 20.3691 192.811 20.6484 192.686 20.9688C192.561 21.2852 192.498 21.623 192.498 21.9824H193.588C193.588 21.7168 193.621 21.4766 193.688 21.2617C193.758 21.0469 193.863 20.8633 194.004 20.7109C194.141 20.5625 194.312 20.4473 194.52 20.3652C194.73 20.2832 194.979 20.2422 195.264 20.2422C195.498 20.2422 195.707 20.2832 195.891 20.3652C196.078 20.4434 196.238 20.5508 196.371 20.6875C196.5 20.8242 196.598 20.9863 196.664 21.1738C196.734 21.3574 196.77 21.5547 196.77 21.7656C196.77 21.9375 196.748 22.1055 196.705 22.2695C196.662 22.4297 196.59 22.5996 196.488 22.7793C196.387 22.9629 196.252 23.1621 196.084 23.377C195.916 23.5918 195.707 23.8379 195.457 24.1152L192.662 27.2207V28H198.252ZM205.477 21.6953C205.477 21.3242 205.412 20.9941 205.283 20.7051C205.154 20.4121 204.977 20.166 204.75 19.9668C204.523 19.7676 204.256 19.6152 203.947 19.5098C203.639 19.4043 203.305 19.3516 202.945 19.3516C202.582 19.3516 202.246 19.4043 201.938 19.5098C201.633 19.6152 201.371 19.7676 201.152 19.9668C200.93 20.166 200.756 20.4121 200.631 20.7051C200.506 20.9941 200.443 21.3242 200.443 21.6953C200.443 21.9062 200.473 22.1074 200.531 22.2988C200.59 22.4902 200.672 22.666 200.777 22.8262C200.883 22.9902 201.012 23.1387 201.164 23.2715C201.316 23.4004 201.486 23.5117 201.674 23.6055C201.455 23.6992 201.258 23.8164 201.082 23.957C200.906 24.0977 200.756 24.2559 200.631 24.4316C200.506 24.6113 200.41 24.8086 200.344 25.0234C200.277 25.2344 200.244 25.459 200.244 25.6973C200.244 26.0879 200.314 26.4336 200.455 26.7344C200.596 27.0352 200.789 27.2871 201.035 27.4902C201.277 27.6973 201.562 27.8535 201.891 27.959C202.223 28.0645 202.58 28.1172 202.963 28.1172C203.338 28.1172 203.689 28.0645 204.018 27.959C204.346 27.8496 204.633 27.6914 204.879 27.4844C205.121 27.2812 205.312 27.0293 205.453 26.7285C205.598 26.4277 205.67 26.084 205.67 25.6973C205.67 25.459 205.635 25.2344 205.564 25.0234C205.498 24.8125 205.402 24.6172 205.277 24.4375C205.148 24.2578 204.994 24.0996 204.814 23.9629C204.639 23.8223 204.441 23.7051 204.223 23.6113C204.348 23.5488 204.465 23.4785 204.574 23.4004C204.684 23.3223 204.783 23.2383 204.873 23.1484C205.061 22.9609 205.207 22.7441 205.312 22.498C205.418 22.248 205.473 21.9805 205.477 21.6953ZM204.586 25.6738C204.586 25.9199 204.545 26.1406 204.463 26.3359C204.385 26.5273 204.275 26.6895 204.135 26.8223C203.99 26.9551 203.818 27.0566 203.619 27.127C203.42 27.1973 203.201 27.2324 202.963 27.2324C202.713 27.2324 202.486 27.1973 202.283 27.127C202.084 27.0566 201.914 26.9551 201.773 26.8223C201.633 26.6895 201.523 26.5273 201.445 26.3359C201.371 26.1406 201.334 25.9199 201.334 25.6738C201.334 25.4355 201.371 25.2168 201.445 25.0176C201.523 24.8184 201.633 24.6465 201.773 24.502C201.914 24.3613 202.084 24.252 202.283 24.1738C202.482 24.0957 202.705 24.0566 202.951 24.0566C203.189 24.0566 203.408 24.0957 203.607 24.1738C203.811 24.252 203.984 24.3613 204.129 24.502C204.273 24.6465 204.385 24.8184 204.463 25.0176C204.545 25.2168 204.586 25.4355 204.586 25.6738ZM204.387 21.7129C204.387 21.9316 204.352 22.1309 204.281 22.3105C204.211 22.4902 204.113 22.6426 203.988 22.7676C203.859 22.8965 203.707 22.9961 203.531 23.0664C203.355 23.1328 203.164 23.166 202.957 23.166C202.746 23.166 202.553 23.1328 202.377 23.0664C202.205 22.9961 202.057 22.8965 201.932 22.7676C201.803 22.6426 201.703 22.4922 201.633 22.3164C201.566 22.1367 201.533 21.9355 201.533 21.7129C201.533 21.4902 201.566 21.2891 201.633 21.1094C201.703 20.9258 201.801 20.7695 201.926 20.6406C202.051 20.5117 202.199 20.4141 202.371 20.3477C202.543 20.2773 202.734 20.2422 202.945 20.2422C203.156 20.2422 203.35 20.2793 203.525 20.3535C203.701 20.4238 203.854 20.5234 203.982 20.6523C204.107 20.7852 204.205 20.9414 204.275 21.1211C204.35 21.3008 204.387 21.498 204.387 21.7129Z" fill="black"/>
<path d="M314.252 28V27.1152H309.969L312.26 24.6309C312.475 24.3965 312.678 24.1621 312.869 23.9277C313.064 23.6895 313.236 23.4492 313.385 23.207C313.529 22.9648 313.645 22.7207 313.73 22.4746C313.816 22.2246 313.859 21.9727 313.859 21.7188C313.859 21.3789 313.799 21.0645 313.678 20.7754C313.561 20.4863 313.391 20.2363 313.168 20.0254C312.945 19.8145 312.672 19.6504 312.348 19.5332C312.027 19.4121 311.666 19.3516 311.264 19.3516C310.826 19.3516 310.436 19.4219 310.092 19.5625C309.752 19.7031 309.465 19.8926 309.23 20.1309C308.992 20.3691 308.811 20.6484 308.686 20.9688C308.561 21.2852 308.498 21.623 308.498 21.9824H309.588C309.588 21.7168 309.621 21.4766 309.688 21.2617C309.758 21.0469 309.863 20.8633 310.004 20.7109C310.141 20.5625 310.312 20.4473 310.52 20.3652C310.73 20.2832 310.979 20.2422 311.264 20.2422C311.498 20.2422 311.707 20.2832 311.891 20.3652C312.078 20.4434 312.238 20.5508 312.371 20.6875C312.5 20.8242 312.598 20.9863 312.664 21.1738C312.734 21.3574 312.77 21.5547 312.77 21.7656C312.77 21.9375 312.748 22.1055 312.705 22.2695C312.662 22.4297 312.59 22.5996 312.488 22.7793C312.387 22.9629 312.252 23.1621 312.084 23.377C311.916 23.5918 311.707 23.8379 311.457 24.1152L308.662 27.2207V28H314.252ZM317.393 27.0391H317.281V28.0059H317.393C318.096 28.0059 318.691 27.9102 319.18 27.7188C319.672 27.5234 320.057 27.2695 320.334 26.957C320.795 26.4414 321.096 25.8516 321.236 25.1875C321.377 24.5195 321.447 23.8555 321.447 23.1953V22.8027C321.447 22.3379 321.383 21.873 321.254 21.4082C321.125 20.9395 320.932 20.5488 320.674 20.2363C320.455 19.9707 320.184 19.7578 319.859 19.5977C319.539 19.4336 319.16 19.3516 318.723 19.3516C318.285 19.3516 317.9 19.4316 317.568 19.5918C317.24 19.748 316.967 19.959 316.748 20.2246C316.525 20.4941 316.357 20.8086 316.244 21.168C316.135 21.5234 316.08 21.9023 316.08 22.3047C316.08 22.6484 316.127 22.9902 316.221 23.3301C316.314 23.6699 316.461 23.9746 316.66 24.2441C316.859 24.5137 317.111 24.7324 317.416 24.9004C317.725 25.0645 318.09 25.1465 318.512 25.1465C318.73 25.1465 318.932 25.125 319.115 25.082C319.303 25.0352 319.473 24.9727 319.625 24.8945C319.777 24.8164 319.914 24.7266 320.035 24.625C320.156 24.5195 320.264 24.4082 320.357 24.291V24.3027C320.338 24.6621 320.281 25.0098 320.188 25.3457C320.094 25.6816 319.912 25.9961 319.643 26.2891C319.42 26.5273 319.125 26.7129 318.758 26.8457C318.395 26.9746 317.939 27.0391 317.393 27.0391ZM318.688 24.25C318.426 24.25 318.197 24.1934 318.002 24.0801C317.811 23.9629 317.652 23.8105 317.527 23.623C317.398 23.4355 317.303 23.2227 317.24 22.9844C317.178 22.7422 317.146 22.4961 317.146 22.2461C317.146 21.9648 317.182 21.7031 317.252 21.4609C317.322 21.2148 317.426 21.002 317.562 20.8223C317.695 20.6465 317.859 20.5078 318.055 20.4062C318.25 20.3047 318.475 20.2539 318.729 20.2539C318.951 20.2539 319.16 20.3086 319.355 20.418C319.555 20.5273 319.73 20.6836 319.883 20.8867C320.031 21.0938 320.148 21.3457 320.234 21.6426C320.324 21.9395 320.369 22.2773 320.369 22.6562V23.0078C320.303 23.1914 320.211 23.3594 320.094 23.5117C319.98 23.6602 319.852 23.7891 319.707 23.8984C319.559 24.0117 319.396 24.0996 319.221 24.1621C319.049 24.2207 318.871 24.25 318.688 24.25Z" fill="black"/>
<path d="M376.188 4.36816V3.36914C376.188 3.09766 376.156 2.85742 376.094 2.64844C376.031 2.4375 375.941 2.25977 375.824 2.11523C375.705 1.9707 375.56 1.86133 375.388 1.78711C375.218 1.71094 375.023 1.67285 374.805 1.67285C374.588 1.67285 374.394 1.71094 374.222 1.78711C374.052 1.86133 373.908 1.9707 373.791 2.11523C373.672 2.25977 373.581 2.4375 373.519 2.64844C373.456 2.85742 373.425 3.09766 373.425 3.36914V4.36816C373.425 4.63965 373.456 4.88086 373.519 5.0918C373.581 5.30078 373.672 5.47656 373.791 5.61914C373.91 5.76562 374.056 5.87598 374.228 5.9502C374.399 6.02246 374.594 6.05859 374.811 6.05859C375.029 6.05859 375.224 6.02148 375.394 5.94727C375.563 5.87305 375.707 5.76367 375.824 5.61914C375.941 5.47656 376.031 5.30078 376.094 5.0918C376.156 4.88086 376.188 4.63965 376.188 4.36816ZM373.97 4.25977C373.97 4.20898 373.97 4.15918 373.97 4.11035C373.97 4.06152 373.97 4.0127 373.97 3.96387V3.24902C373.97 3.0498 373.989 2.875 374.028 2.72461C374.069 2.57227 374.131 2.44824 374.213 2.35254C374.281 2.27637 374.364 2.21875 374.462 2.17969C374.562 2.13867 374.676 2.11816 374.805 2.11816C374.932 2.11816 375.043 2.13672 375.139 2.17383C375.236 2.21094 375.318 2.2666 375.385 2.34082C375.453 2.41309 375.507 2.50391 375.546 2.61328C375.587 2.7207 375.615 2.84473 375.631 2.98535L373.97 4.25977ZM375.643 4.48242C375.643 4.69141 375.621 4.87305 375.578 5.02734C375.537 5.18164 375.472 5.30664 375.382 5.40234C375.315 5.47266 375.234 5.52637 375.139 5.56348C375.043 5.60059 374.934 5.61914 374.811 5.61914C374.693 5.61914 374.588 5.60254 374.494 5.56934C374.4 5.53418 374.32 5.4834 374.254 5.41699C374.182 5.34668 374.123 5.25781 374.078 5.15039C374.033 5.04102 374.002 4.91504 373.984 4.77246L375.643 3.50391C375.643 3.55859 375.643 3.62793 375.643 3.71191C375.643 3.79395 375.643 3.84961 375.643 3.87891V4.48242ZM378.423 4.00488L377.585 2.83008H376.958L378.139 4.39746L376.926 6H377.559L378.435 4.79297L379.311 6H379.938L378.725 4.39746L379.905 2.83008H379.27L378.423 4.00488ZM381.35 3.60645V4.0459H381.736C381.871 4.0459 381.994 4.06152 382.105 4.09277C382.219 4.12402 382.315 4.17188 382.396 4.23633C382.474 4.30078 382.534 4.38184 382.577 4.47949C382.622 4.5752 382.645 4.68945 382.645 4.82227C382.645 4.95703 382.625 5.07422 382.586 5.17383C382.549 5.27148 382.495 5.35352 382.425 5.41992C382.354 5.48633 382.27 5.53613 382.17 5.56934C382.07 5.60059 381.959 5.61621 381.836 5.61621C381.713 5.61621 381.601 5.59863 381.499 5.56348C381.399 5.52832 381.314 5.47852 381.244 5.41406C381.174 5.34961 381.119 5.27148 381.08 5.17969C381.043 5.08789 381.024 4.98633 381.024 4.875H380.482C380.482 5.0625 380.518 5.22949 380.588 5.37598C380.66 5.52246 380.757 5.64648 380.878 5.74805C380.999 5.84961 381.142 5.92676 381.306 5.97949C381.472 6.03223 381.648 6.05859 381.836 6.05859C382.027 6.05859 382.205 6.03125 382.369 5.97656C382.535 5.91992 382.679 5.83789 382.8 5.73047C382.921 5.625 383.016 5.49512 383.084 5.34082C383.152 5.18652 383.187 5.00977 383.187 4.81055C383.187 4.71289 383.175 4.61426 383.151 4.51465C383.13 4.41504 383.092 4.32031 383.037 4.23047C382.98 4.14062 382.905 4.05957 382.812 3.9873C382.72 3.91504 382.604 3.85645 382.466 3.81152C382.581 3.7627 382.68 3.70215 382.762 3.62988C382.846 3.55566 382.914 3.47656 382.967 3.39258C383.02 3.31055 383.059 3.22559 383.084 3.1377C383.109 3.0498 383.122 2.96484 383.122 2.88281C383.122 2.68555 383.091 2.51172 383.028 2.36133C382.966 2.21094 382.878 2.08496 382.765 1.9834C382.651 1.88184 382.516 1.80566 382.357 1.75488C382.199 1.70215 382.024 1.67578 381.833 1.67578C381.636 1.67578 381.456 1.70703 381.294 1.76953C381.134 1.83008 380.996 1.91309 380.881 2.01855C380.766 2.12598 380.676 2.25195 380.611 2.39648C380.549 2.53906 380.518 2.69141 380.518 2.85352H381.062C381.062 2.74219 381.081 2.6416 381.118 2.55176C381.155 2.46191 381.208 2.38477 381.276 2.32031C381.343 2.25586 381.423 2.20703 381.517 2.17383C381.612 2.13867 381.718 2.12109 381.833 2.12109C381.952 2.12109 382.058 2.13672 382.149 2.16797C382.243 2.19727 382.321 2.24219 382.384 2.30273C382.448 2.36523 382.497 2.44434 382.53 2.54004C382.563 2.63379 382.58 2.74414 382.58 2.87109C382.58 2.97852 382.562 3.07715 382.524 3.16699C382.487 3.25684 382.434 3.33398 382.363 3.39844C382.291 3.46289 382.202 3.51367 382.097 3.55078C381.993 3.58789 381.873 3.60645 381.736 3.60645H381.35ZM385.671 5.61914C385.501 5.61914 385.358 5.58594 385.243 5.51953C385.13 5.45117 385.039 5.3623 384.971 5.25293C384.9 5.14551 384.85 5.02441 384.818 4.88965C384.789 4.75293 384.774 4.61523 384.774 4.47656V4.35352C384.774 4.2168 384.789 4.08105 384.818 3.94629C384.85 3.81152 384.9 3.68945 384.971 3.58008C385.041 3.47266 385.133 3.38574 385.246 3.31934C385.361 3.25098 385.503 3.2168 385.671 3.2168C385.78 3.2168 385.882 3.23535 385.976 3.27246C386.071 3.30957 386.153 3.36035 386.222 3.4248C386.29 3.48926 386.344 3.56445 386.383 3.65039C386.424 3.73438 386.445 3.82422 386.447 3.91992H386.96C386.96 3.75977 386.928 3.60938 386.863 3.46875C386.799 3.32812 386.71 3.20605 386.597 3.10254C386.481 3.00098 386.345 2.9209 386.187 2.8623C386.03 2.80176 385.858 2.77148 385.671 2.77148C385.431 2.77148 385.221 2.81445 385.041 2.90039C384.861 2.98633 384.712 3.10156 384.593 3.24609C384.472 3.39258 384.381 3.56152 384.32 3.75293C384.26 3.94434 384.229 4.14453 384.229 4.35352V4.47656C384.229 4.6875 384.26 4.88867 384.32 5.08008C384.381 5.26953 384.472 5.43652 384.593 5.58105C384.712 5.72754 384.861 5.84375 385.041 5.92969C385.221 6.01562 385.431 6.05859 385.671 6.05859C385.839 6.05859 386 6.03027 386.154 5.97363C386.309 5.91504 386.445 5.83691 386.564 5.73926C386.684 5.64355 386.778 5.53223 386.849 5.40527C386.921 5.27637 386.958 5.1416 386.96 5.00098H386.447C386.445 5.08887 386.422 5.1709 386.377 5.24707C386.334 5.32129 386.276 5.38574 386.204 5.44043C386.132 5.49707 386.049 5.54102 385.955 5.57227C385.863 5.60352 385.769 5.61914 385.671 5.61914Z" fill="black"/>
<g filter="url(#filter3_d_9_428)">
<rect x="373" y="8" width="116" height="30" fill="#EEEEEE"/>
<rect x="373" y="8" width="116" height="30" stroke="black"/>
</g>
<path d="M426.285 23.2129V24.0918H427.059C427.328 24.0918 427.574 24.123 427.797 24.1855C428.023 24.248 428.217 24.3438 428.377 24.4727C428.533 24.6016 428.654 24.7637 428.74 24.959C428.83 25.1504 428.875 25.3789 428.875 25.6445C428.875 25.9141 428.836 26.1484 428.758 26.3477C428.684 26.543 428.576 26.707 428.436 26.8398C428.295 26.9727 428.125 27.0723 427.926 27.1387C427.727 27.2012 427.504 27.2324 427.258 27.2324C427.012 27.2324 426.787 27.1973 426.584 27.127C426.385 27.0566 426.215 26.957 426.074 26.8281C425.934 26.6992 425.824 26.543 425.746 26.3594C425.672 26.1758 425.635 25.9727 425.635 25.75H424.551C424.551 26.125 424.621 26.459 424.762 26.752C424.906 27.0449 425.1 27.293 425.342 27.4961C425.584 27.6992 425.869 27.8535 426.197 27.959C426.529 28.0645 426.883 28.1172 427.258 28.1172C427.641 28.1172 427.996 28.0625 428.324 27.9531C428.656 27.8398 428.943 27.6758 429.186 27.4609C429.428 27.25 429.617 26.9902 429.754 26.6816C429.891 26.373 429.959 26.0195 429.959 25.6211C429.959 25.4258 429.936 25.2285 429.889 25.0293C429.846 24.8301 429.77 24.6406 429.66 24.4609C429.547 24.2812 429.396 24.1191 429.209 23.9746C429.025 23.8301 428.795 23.7129 428.518 23.623C428.748 23.5254 428.945 23.4043 429.109 23.2598C429.277 23.1113 429.414 22.9531 429.52 22.7852C429.625 22.6211 429.703 22.4512 429.754 22.2754C429.805 22.0996 429.83 21.9297 429.83 21.7656C429.83 21.3711 429.768 21.0234 429.643 20.7227C429.518 20.4219 429.342 20.1699 429.115 19.9668C428.889 19.7637 428.617 19.6113 428.301 19.5098C427.984 19.4043 427.635 19.3516 427.252 19.3516C426.857 19.3516 426.498 19.4141 426.174 19.5391C425.854 19.6602 425.578 19.8262 425.348 20.0371C425.117 20.252 424.938 20.5039 424.809 20.793C424.684 21.0781 424.621 21.3828 424.621 21.707H425.711C425.711 21.4844 425.748 21.2832 425.822 21.1035C425.896 20.9238 426.002 20.7695 426.139 20.6406C426.271 20.5117 426.432 20.4141 426.619 20.3477C426.811 20.2773 427.021 20.2422 427.252 20.2422C427.49 20.2422 427.701 20.2734 427.885 20.3359C428.072 20.3945 428.229 20.4844 428.354 20.6055C428.482 20.7305 428.58 20.8887 428.646 21.0801C428.713 21.2676 428.746 21.4883 428.746 21.7422C428.746 21.957 428.709 22.1543 428.635 22.334C428.561 22.5137 428.453 22.668 428.312 22.7969C428.168 22.9258 427.99 23.0273 427.779 23.1016C427.572 23.1758 427.332 23.2129 427.059 23.2129H426.285ZM437.582 24.7363V22.7383C437.582 22.1953 437.52 21.7148 437.395 21.2969C437.27 20.875 437.09 20.5195 436.855 20.2305C436.617 19.9414 436.326 19.7227 435.982 19.5742C435.643 19.4219 435.254 19.3457 434.816 19.3457C434.383 19.3457 433.994 19.4219 433.65 19.5742C433.311 19.7227 433.023 19.9414 432.789 20.2305C432.551 20.5195 432.369 20.875 432.244 21.2969C432.119 21.7148 432.057 22.1953 432.057 22.7383V24.7363C432.057 25.2793 432.119 25.7617 432.244 26.1836C432.369 26.6016 432.551 26.9531 432.789 27.2383C433.027 27.5312 433.318 27.752 433.662 27.9004C434.006 28.0449 434.395 28.1172 434.828 28.1172C435.266 28.1172 435.654 28.043 435.994 27.8945C436.334 27.7461 436.621 27.5273 436.855 27.2383C437.09 26.9531 437.27 26.6016 437.395 26.1836C437.52 25.7617 437.582 25.2793 437.582 24.7363ZM433.146 24.5195C433.146 24.418 433.146 24.3184 433.146 24.2207C433.146 24.123 433.146 24.0254 433.146 23.9277V22.498C433.146 22.0996 433.186 21.75 433.264 21.4492C433.346 21.1445 433.469 20.8965 433.633 20.7051C433.77 20.5527 433.936 20.4375 434.131 20.3594C434.33 20.2773 434.559 20.2363 434.816 20.2363C435.07 20.2363 435.293 20.2734 435.484 20.3477C435.68 20.4219 435.844 20.5332 435.977 20.6816C436.113 20.8262 436.221 21.0078 436.299 21.2266C436.381 21.4414 436.438 21.6895 436.469 21.9707L433.146 24.5195ZM436.492 24.9648C436.492 25.3828 436.449 25.7461 436.363 26.0547C436.281 26.3633 436.15 26.6133 435.971 26.8047C435.838 26.9453 435.676 27.0527 435.484 27.127C435.293 27.2012 435.074 27.2383 434.828 27.2383C434.594 27.2383 434.383 27.2051 434.195 27.1387C434.008 27.0684 433.848 26.9668 433.715 26.834C433.57 26.6934 433.453 26.5156 433.363 26.3008C433.273 26.082 433.211 25.8301 433.176 25.5449L436.492 23.0078C436.492 23.1172 436.492 23.2559 436.492 23.4238C436.492 23.5879 436.492 23.6992 436.492 23.7578V24.9648Z" fill="black"/>
<path d="M2.90625 27.2969C2.90625 27.5234 2.97656 27.7168 3.11719 27.877C3.26172 28.0332 3.47461 28.1113 3.75586 28.1113C4.0332 28.1113 4.24609 28.0332 4.39453 27.877C4.54297 27.7207 4.61719 27.5273 4.61719 27.2969C4.61719 27.0625 4.54297 26.8652 4.39453 26.7051C4.25 26.541 4.03711 26.459 3.75586 26.459C3.4707 26.459 3.25781 26.541 3.11719 26.7051C2.97656 26.8691 2.90625 27.0664 2.90625 27.2969ZM10.1133 27.2969C10.1133 27.5234 10.1836 27.7168 10.3242 27.877C10.4688 28.0332 10.6816 28.1113 10.9629 28.1113C11.2402 28.1113 11.4531 28.0332 11.6016 27.877C11.75 27.7207 11.8242 27.5273 11.8242 27.2969C11.8242 27.0625 11.75 26.8652 11.6016 26.7051C11.457 26.541 11.2441 26.459 10.9629 26.459C10.6777 26.459 10.4648 26.541 10.3242 26.7051C10.1836 26.8691 10.1133 27.0664 10.1133 27.2969ZM17.3203 27.2969C17.3203 27.5234 17.3906 27.7168 17.5312 27.877C17.6758 28.0332 17.8887 28.1113 18.1699 28.1113C18.4473 28.1113 18.6602 28.0332 18.8086 27.877C18.957 27.7207 19.0312 27.5273 19.0312 27.2969C19.0312 27.0625 18.957 26.8652 18.8086 26.7051C18.6641 26.541 18.4512 26.459 18.1699 26.459C17.8848 26.459 17.6719 26.541 17.5312 26.7051C17.3906 26.8691 17.3203 27.0664 17.3203 27.2969Z" fill="black"/>
<path d="M495.906 27.2969C495.906 27.5234 495.977 27.7168 496.117 27.877C496.262 28.0332 496.475 28.1113 496.756 28.1113C497.033 28.1113 497.246 28.0332 497.395 27.877C497.543 27.7207 497.617 27.5273 497.617 27.2969C497.617 27.0625 497.543 26.8652 497.395 26.7051C497.25 26.541 497.037 26.459 496.756 26.459C496.471 26.459 496.258 26.541 496.117 26.7051C495.977 26.8691 495.906 27.0664 495.906 27.2969ZM503.113 27.2969C503.113 27.5234 503.184 27.7168 503.324 27.877C503.469 28.0332 503.682 28.1113 503.963 28.1113C504.24 28.1113 504.453 28.0332 504.602 27.877C504.75 27.7207 504.824 27.5273 504.824 27.2969C504.824 27.0625 504.75 26.8652 504.602 26.7051C504.457 26.541 504.244 26.459 503.963 26.459C503.678 26.459 503.465 26.541 503.324 26.7051C503.184 26.8691 503.113 27.0664 503.113 27.2969ZM510.32 27.2969C510.32 27.5234 510.391 27.7168 510.531 27.877C510.676 28.0332 510.889 28.1113 511.17 28.1113C511.447 28.1113 511.66 28.0332 511.809 27.877C511.957 27.7207 512.031 27.5273 512.031 27.2969C512.031 27.0625 511.957 26.8652 511.809 26.7051C511.664 26.541 511.451 26.459 511.17 26.459C510.885 26.459 510.672 26.541 510.531 26.7051C510.391 26.8691 510.32 27.0664 510.32 27.2969Z" fill="black"/>
<defs>
<filter id="filter0_d_9_428" x="20.5" y="7.5" width="125" height="39" filterUnits="userSpaceOnUse" color-interpolation-filters="sRGB">
<feFlood flood-opacity="0" result="BackgroundImageFix"/>
<feColorMatrix in="SourceAlpha" type="matrix" values="0 0 0 0 0 0 0 0 0 0 0 0 0 0 0 0 0 0 127 0" result="hardAlpha"/>
<feOffset dy="4"/>
<feGaussianBlur stdDeviation="2"/>
<feComposite in2="hardAlpha" operator="out"/>
<feColorMatrix type="matrix" values="0 0 0 0 0 0 0 0 0 0 0 0 0 0 0 0 0 0 0.25 0"/>
<feBlend mode="normal" in2="BackgroundImageFix" result="effect1_dropShadow_9_428"/>
<feBlend mode="normal" in="SourceGraphic" in2="effect1_dropShadow_9_428" result="shape"/>
</filter>
<filter id="filter1_d_9_428" x="136.5" y="7.5" width="125" height="39" filterUnits="userSpaceOnUse" color-interpolation-filters="sRGB">
<feFlood flood-opacity="0" result="BackgroundImageFix"/>
<feColorMatrix in="SourceAlpha" type="matrix" values="0 0 0 0 0 0 0 0 0 0 0 0 0 0 0 0 0 0 127 0" result="hardAlpha"/>
<feOffset dy="4"/>
<feGaussianBlur stdDeviation="2"/>
<feComposite in2="hardAlpha" operator="out"/>
<feColorMatrix type="matrix" values="0 0 0 0 0 0 0 0 0 0 0 0 0 0 0 0 0 0 0.25 0"/>
<feBlend mode="normal" in2="BackgroundImageFix" result="effect1_dropShadow_9_428"/>
<feBlend mode="normal" in="SourceGraphic" in2="effect1_dropShadow_9_428" result="shape"/>
</filter>
<filter id="filter2_d_9_428" x="252.5" y="7.5" width="125" height="39" filterUnits="userSpaceOnUse" color-interpolation-filters="sRGB">
<feFlood flood-opacity="0" result="BackgroundImageFix"/>
<feColorMatrix in="SourceAlpha" type="matrix" values="0 0 0 0 0 0 0 0 0 0 0 0 0 0 0 0 0 0 127 0" result="hardAlpha"/>
<feOffset dy="4"/>
<feGaussianBlur stdDeviation="2"/>
<feComposite in2="hardAlpha" operator="out"/>
<feColorMatrix type="matrix" values="0 0 0 0 0 0 0 0 0 0 0 0 0 0 0 0 0 0 0.25 0"/>
<feBlend mode="normal" in2="BackgroundImageFix" result="effect1_dropShadow_9_428"/>
<feBlend mode="normal" in="SourceGraphic" in2="effect1_dropShadow_9_428" result="shape"/>
</filter>
<filter id="filter3_d_9_428" x="368.5" y="7.5" width="125" height="39" filterUnits="userSpaceOnUse" color-interpolation-filters="sRGB">
<feFlood flood-opacity="0" result="BackgroundImageFix"/>
<feColorMatrix in="SourceAlpha" type="matrix" values="0 0 0 0 0 0 0 0 0 0 0 0 0 0 0 0 0 0 127 0" result="hardAlpha"/>
<feOffset dy="4"/>
<feGaussianBlur stdDeviation="2"/>
<feComposite in2="hardAlpha" operator="out"/>
<feColorMatrix type="matrix" values="0 0 0 0 0 0 0 0 0 0 0 0 0 0 0 0 0 0 0.25 0"/>
<feBlend mode="normal" in2="BackgroundImageFix" result="effect1_dropShadow_9_428"/>
<feBlend mode="normal" in="SourceGraphic" in2="effect1_dropShadow_9_428" result="shape"/>
</filter>
</defs>
</svg>
