<svg width="285" height="252" viewBox="0 0 285 252" fill="none" xmlns="http://www.w3.org/2000/svg">
<g filter="url(#filter0_d_3_374)">
<rect x="36" y="1" width="244" height="39" fill="#EEEEEE"/>
<rect x="36" y="1" width="244" height="39" stroke="black"/>
</g>
<g filter="url(#filter1_d_3_374)">
<rect x="36" y="39" width="244" height="87" fill="white"/>
<rect x="36" y="39" width="244" height="87" stroke="black"/>
</g>
<g filter="url(#filter2_d_3_374)">
<rect x="36" y="126" width="244" height="39" fill="#EEEEEE"/>
<rect x="36" y="126" width="244" height="39" stroke="black"/>
</g>
<g filter="url(#filter3_d_3_374)">
<rect x="36" y="165" width="244" height="39" fill="#EEEEEE"/>
<rect x="36" y="165" width="244" height="39" stroke="black"/>
</g>
<g filter="url(#filter4_d_3_374)">
<rect x="36" y="204" width="244" height="39" fill="#EEEEEE"/>
<rect x="36" y="204" width="244" height="39" stroke="black"/>
</g>
<path d="M149.369 150V141.469H148.344V145.137H144.846V141.469H143.826V150H144.846V146.057H148.344V150H149.369ZM154.027 150.117C154.645 150.117 155.162 149.994 155.58 149.748C156.002 149.498 156.318 149.213 156.529 148.893L155.867 148.377C155.668 148.635 155.418 148.842 155.117 148.998C154.816 149.154 154.473 149.232 154.086 149.232C153.793 149.232 153.525 149.178 153.283 149.068C153.041 148.959 152.834 148.809 152.662 148.617C152.494 148.438 152.361 148.23 152.264 147.996C152.17 147.762 152.109 147.49 152.082 147.182V147.141H156.611V146.654C156.611 146.213 156.555 145.803 156.441 145.424C156.332 145.045 156.164 144.715 155.938 144.434C155.711 144.156 155.426 143.939 155.082 143.783C154.742 143.623 154.344 143.543 153.887 143.543C153.523 143.543 153.168 143.617 152.82 143.766C152.477 143.914 152.17 144.127 151.9 144.404C151.627 144.686 151.408 145.029 151.244 145.436C151.08 145.838 150.998 146.295 150.998 146.807V147.053C150.998 147.494 151.072 147.902 151.221 148.277C151.369 148.652 151.576 148.977 151.842 149.25C152.107 149.523 152.426 149.736 152.797 149.889C153.172 150.041 153.582 150.117 154.027 150.117ZM153.887 144.434C154.164 144.434 154.402 144.484 154.602 144.586C154.805 144.688 154.973 144.82 155.105 144.984C155.238 145.148 155.342 145.344 155.416 145.57C155.49 145.793 155.527 146.002 155.527 146.197V146.25H152.117C152.16 145.957 152.234 145.699 152.34 145.477C152.449 145.25 152.582 145.059 152.738 144.902C152.895 144.75 153.07 144.635 153.266 144.557C153.461 144.475 153.668 144.434 153.887 144.434ZM162.6 150H163.73V149.906C163.66 149.73 163.605 149.525 163.566 149.291C163.527 149.053 163.508 148.828 163.508 148.617V145.67C163.508 145.314 163.443 145.004 163.314 144.738C163.186 144.473 163.01 144.25 162.787 144.07C162.561 143.895 162.293 143.764 161.984 143.678C161.676 143.588 161.342 143.543 160.982 143.543C160.588 143.543 160.234 143.598 159.922 143.707C159.613 143.816 159.352 143.959 159.137 144.135C158.918 144.314 158.75 144.516 158.633 144.738C158.52 144.961 158.461 145.188 158.457 145.418H159.547C159.547 145.285 159.578 145.158 159.641 145.037C159.707 144.912 159.799 144.805 159.916 144.715C160.033 144.625 160.176 144.553 160.344 144.498C160.516 144.443 160.709 144.416 160.924 144.416C161.154 144.416 161.361 144.445 161.545 144.504C161.732 144.562 161.891 144.645 162.02 144.75C162.148 144.859 162.248 144.99 162.318 145.143C162.389 145.295 162.424 145.467 162.424 145.658V146.156H161.24C160.799 146.156 160.398 146.199 160.039 146.285C159.684 146.371 159.379 146.5 159.125 146.672C158.871 146.848 158.674 147.066 158.533 147.328C158.396 147.59 158.328 147.895 158.328 148.242C158.328 148.508 158.379 148.756 158.48 148.986C158.586 149.213 158.734 149.408 158.926 149.572C159.113 149.74 159.342 149.873 159.611 149.971C159.885 150.068 160.189 150.117 160.525 150.117C160.732 150.117 160.928 150.096 161.111 150.053C161.295 150.01 161.469 149.951 161.633 149.877C161.793 149.803 161.939 149.717 162.072 149.619C162.209 149.521 162.332 149.418 162.441 149.309C162.453 149.441 162.471 149.57 162.494 149.695C162.521 149.816 162.557 149.918 162.6 150ZM160.684 149.174C160.473 149.174 160.287 149.146 160.127 149.092C159.967 149.037 159.834 148.961 159.729 148.863C159.623 148.77 159.543 148.656 159.488 148.523C159.438 148.391 159.412 148.246 159.412 148.09C159.412 147.926 159.441 147.779 159.5 147.65C159.562 147.521 159.652 147.41 159.77 147.316C159.934 147.184 160.154 147.086 160.432 147.023C160.713 146.957 161.041 146.924 161.416 146.924H162.424V148.207C162.361 148.332 162.275 148.453 162.166 148.57C162.057 148.684 161.928 148.785 161.779 148.875C161.627 148.965 161.459 149.037 161.275 149.092C161.092 149.146 160.895 149.174 160.684 149.174ZM165.635 152.438H166.719V149.391C166.797 149.477 166.881 149.557 166.971 149.631C167.061 149.701 167.156 149.766 167.258 149.824C167.426 149.918 167.613 149.99 167.82 150.041C168.031 150.092 168.258 150.117 168.5 150.117C168.898 150.117 169.252 150.035 169.561 149.871C169.873 149.707 170.135 149.48 170.346 149.191C170.557 148.902 170.717 148.562 170.826 148.172C170.936 147.777 170.99 147.354 170.99 146.9V146.777C170.99 146.305 170.936 145.871 170.826 145.477C170.717 145.078 170.557 144.736 170.346 144.451C170.135 144.166 169.873 143.943 169.561 143.783C169.248 143.623 168.889 143.543 168.482 143.543C168.252 143.543 168.035 143.568 167.832 143.619C167.633 143.666 167.451 143.736 167.287 143.83C167.17 143.893 167.061 143.969 166.959 144.059C166.857 144.145 166.764 144.242 166.678 144.352L166.625 143.66H165.635V152.438ZM169.906 146.777V146.9C169.906 147.209 169.871 147.504 169.801 147.785C169.734 148.066 169.631 148.314 169.49 148.529C169.35 148.744 169.17 148.916 168.951 149.045C168.732 149.17 168.473 149.232 168.172 149.232C167.984 149.232 167.812 149.209 167.656 149.162C167.504 149.115 167.365 149.051 167.24 148.969C167.131 148.898 167.033 148.812 166.947 148.711C166.861 148.609 166.785 148.5 166.719 148.383V145.33C166.793 145.197 166.879 145.076 166.977 144.967C167.074 144.857 167.186 144.766 167.311 144.691C167.424 144.617 167.551 144.561 167.691 144.521C167.836 144.482 167.992 144.463 168.16 144.463C168.465 144.463 168.727 144.525 168.945 144.65C169.164 144.775 169.346 144.943 169.49 145.154C169.631 145.369 169.734 145.617 169.801 145.898C169.871 146.176 169.906 146.469 169.906 146.777Z" fill="black"/>
<path d="M143.908 189H145.883C146.293 188.996 146.674 188.947 147.025 188.854C147.381 188.76 147.699 188.625 147.98 188.449C148.246 188.281 148.486 188.078 148.701 187.84C148.916 187.602 149.094 187.336 149.234 187.043C149.371 186.762 149.475 186.453 149.545 186.117C149.619 185.781 149.656 185.426 149.656 185.051V184.424C149.652 184.033 149.611 183.666 149.533 183.322C149.459 182.979 149.35 182.662 149.205 182.373C149.045 182.033 148.83 181.734 148.561 181.477C148.295 181.215 147.988 181.004 147.641 180.844C147.391 180.727 147.117 180.637 146.82 180.574C146.527 180.508 146.215 180.473 145.883 180.469H143.908V189ZM145.01 181.359H145.883C146.152 181.363 146.4 181.395 146.627 181.453C146.854 181.508 147.059 181.586 147.242 181.688C147.5 181.824 147.717 182.004 147.893 182.227C148.072 182.445 148.215 182.691 148.32 182.965C148.402 183.176 148.463 183.404 148.502 183.65C148.545 183.893 148.568 184.146 148.572 184.412V185.051C148.568 185.312 148.547 185.564 148.508 185.807C148.469 186.045 148.41 186.268 148.332 186.475C148.242 186.729 148.119 186.959 147.963 187.166C147.811 187.369 147.629 187.541 147.418 187.682C147.219 187.818 146.99 187.924 146.732 187.998C146.479 188.072 146.195 188.111 145.883 188.115H145.01V181.359ZM155.393 189H156.523V188.906C156.453 188.73 156.398 188.525 156.359 188.291C156.32 188.053 156.301 187.828 156.301 187.617V184.67C156.301 184.314 156.236 184.004 156.107 183.738C155.979 183.473 155.803 183.25 155.58 183.07C155.354 182.895 155.086 182.764 154.777 182.678C154.469 182.588 154.135 182.543 153.775 182.543C153.381 182.543 153.027 182.598 152.715 182.707C152.406 182.816 152.145 182.959 151.93 183.135C151.711 183.314 151.543 183.516 151.426 183.738C151.312 183.961 151.254 184.188 151.25 184.418H152.34C152.34 184.285 152.371 184.158 152.434 184.037C152.5 183.912 152.592 183.805 152.709 183.715C152.826 183.625 152.969 183.553 153.137 183.498C153.309 183.443 153.502 183.416 153.717 183.416C153.947 183.416 154.154 183.445 154.338 183.504C154.525 183.562 154.684 183.645 154.812 183.75C154.941 183.859 155.041 183.99 155.111 184.143C155.182 184.295 155.217 184.467 155.217 184.658V185.156H154.033C153.592 185.156 153.191 185.199 152.832 185.285C152.477 185.371 152.172 185.5 151.918 185.672C151.664 185.848 151.467 186.066 151.326 186.328C151.189 186.59 151.121 186.895 151.121 187.242C151.121 187.508 151.172 187.756 151.273 187.986C151.379 188.213 151.527 188.408 151.719 188.572C151.906 188.74 152.135 188.873 152.404 188.971C152.678 189.068 152.982 189.117 153.318 189.117C153.525 189.117 153.721 189.096 153.904 189.053C154.088 189.01 154.262 188.951 154.426 188.877C154.586 188.803 154.732 188.717 154.865 188.619C155.002 188.521 155.125 188.418 155.234 188.309C155.246 188.441 155.264 188.57 155.287 188.695C155.314 188.816 155.35 188.918 155.393 189ZM153.477 188.174C153.266 188.174 153.08 188.146 152.92 188.092C152.76 188.037 152.627 187.961 152.521 187.863C152.416 187.77 152.336 187.656 152.281 187.523C152.23 187.391 152.205 187.246 152.205 187.09C152.205 186.926 152.234 186.779 152.293 186.65C152.355 186.521 152.445 186.41 152.562 186.316C152.727 186.184 152.947 186.086 153.225 186.023C153.506 185.957 153.834 185.924 154.209 185.924H155.217V187.207C155.154 187.332 155.068 187.453 154.959 187.57C154.85 187.684 154.721 187.785 154.572 187.875C154.42 187.965 154.252 188.037 154.068 188.092C153.885 188.146 153.688 188.174 153.477 188.174ZM161 181.125H159.91V182.66H158.246V183.498H159.91V186.943C159.91 187.334 159.961 187.668 160.062 187.945C160.168 188.219 160.311 188.441 160.49 188.613C160.67 188.789 160.881 188.918 161.123 189C161.369 189.078 161.633 189.117 161.914 189.117C162.082 189.117 162.25 189.109 162.418 189.094C162.59 189.078 162.752 189.055 162.904 189.023C163.057 188.996 163.197 188.963 163.326 188.924C163.455 188.881 163.564 188.832 163.654 188.777L163.502 188.01C163.436 188.025 163.35 188.045 163.244 188.068C163.143 188.088 163.033 188.107 162.916 188.127C162.795 188.146 162.672 188.164 162.547 188.18C162.422 188.191 162.301 188.197 162.184 188.197C162.023 188.197 161.871 188.178 161.727 188.139C161.586 188.1 161.461 188.031 161.352 187.934C161.242 187.84 161.156 187.713 161.094 187.553C161.031 187.393 161 187.189 161 186.943V183.498H163.414V182.66H161V181.125ZM169.807 189H170.938V188.906C170.867 188.73 170.812 188.525 170.773 188.291C170.734 188.053 170.715 187.828 170.715 187.617V184.67C170.715 184.314 170.65 184.004 170.521 183.738C170.393 183.473 170.217 183.25 169.994 183.07C169.768 182.895 169.5 182.764 169.191 182.678C168.883 182.588 168.549 182.543 168.189 182.543C167.795 182.543 167.441 182.598 167.129 182.707C166.82 182.816 166.559 182.959 166.344 183.135C166.125 183.314 165.957 183.516 165.84 183.738C165.727 183.961 165.668 184.188 165.664 184.418H166.754C166.754 184.285 166.785 184.158 166.848 184.037C166.914 183.912 167.006 183.805 167.123 183.715C167.24 183.625 167.383 183.553 167.551 183.498C167.723 183.443 167.916 183.416 168.131 183.416C168.361 183.416 168.568 183.445 168.752 183.504C168.939 183.562 169.098 183.645 169.227 183.75C169.355 183.859 169.455 183.99 169.525 184.143C169.596 184.295 169.631 184.467 169.631 184.658V185.156H168.447C168.006 185.156 167.605 185.199 167.246 185.285C166.891 185.371 166.586 185.5 166.332 185.672C166.078 185.848 165.881 186.066 165.74 186.328C165.604 186.59 165.535 186.895 165.535 187.242C165.535 187.508 165.586 187.756 165.688 187.986C165.793 188.213 165.941 188.408 166.133 188.572C166.32 188.74 166.549 188.873 166.818 188.971C167.092 189.068 167.396 189.117 167.732 189.117C167.939 189.117 168.135 189.096 168.318 189.053C168.502 189.01 168.676 188.951 168.84 188.877C169 188.803 169.146 188.717 169.279 188.619C169.416 188.521 169.539 188.418 169.648 188.309C169.66 188.441 169.678 188.57 169.701 188.695C169.729 188.816 169.764 188.918 169.807 189ZM167.891 188.174C167.68 188.174 167.494 188.146 167.334 188.092C167.174 188.037 167.041 187.961 166.936 187.863C166.83 187.77 166.75 187.656 166.695 187.523C166.645 187.391 166.619 187.246 166.619 187.09C166.619 186.926 166.648 186.779 166.707 186.65C166.77 186.521 166.859 186.41 166.977 186.316C167.141 186.184 167.361 186.086 167.639 186.023C167.92 185.957 168.248 185.924 168.623 185.924H169.631V187.207C169.568 187.332 169.482 187.453 169.373 187.57C169.264 187.684 169.135 187.785 168.986 187.875C168.834 187.965 168.666 188.037 168.482 188.092C168.299 188.146 168.102 188.174 167.891 188.174Z" fill="black"/>
<path d="M149.773 220.395V219.469H143.445V220.395H146.082V228H147.137V220.395H149.773ZM154.027 228.117C154.645 228.117 155.162 227.994 155.58 227.748C156.002 227.498 156.318 227.213 156.529 226.893L155.867 226.377C155.668 226.635 155.418 226.842 155.117 226.998C154.816 227.154 154.473 227.232 154.086 227.232C153.793 227.232 153.525 227.178 153.283 227.068C153.041 226.959 152.834 226.809 152.662 226.617C152.494 226.438 152.361 226.23 152.264 225.996C152.17 225.762 152.109 225.49 152.082 225.182V225.141H156.611V224.654C156.611 224.213 156.555 223.803 156.441 223.424C156.332 223.045 156.164 222.715 155.938 222.434C155.711 222.156 155.426 221.939 155.082 221.783C154.742 221.623 154.344 221.543 153.887 221.543C153.523 221.543 153.168 221.617 152.82 221.766C152.477 221.914 152.17 222.127 151.9 222.404C151.627 222.686 151.408 223.029 151.244 223.436C151.08 223.838 150.998 224.295 150.998 224.807V225.053C150.998 225.494 151.072 225.902 151.221 226.277C151.369 226.652 151.576 226.977 151.842 227.25C152.107 227.523 152.426 227.736 152.797 227.889C153.172 228.041 153.582 228.117 154.027 228.117ZM153.887 222.434C154.164 222.434 154.402 222.484 154.602 222.586C154.805 222.688 154.973 222.82 155.105 222.984C155.238 223.148 155.342 223.344 155.416 223.57C155.49 223.793 155.527 224.002 155.527 224.197V224.25H152.117C152.16 223.957 152.234 223.699 152.34 223.477C152.449 223.25 152.582 223.059 152.738 222.902C152.895 222.75 153.07 222.635 153.266 222.557C153.461 222.475 153.668 222.434 153.887 222.434ZM161.053 224.01L159.377 221.66H158.123L160.484 224.795L158.059 228H159.324L161.076 225.586L162.828 228H164.082L161.656 224.795L164.018 221.66H162.746L161.053 224.01ZM168.207 220.125H167.117V221.66H165.453V222.498H167.117V225.943C167.117 226.334 167.168 226.668 167.27 226.945C167.375 227.219 167.518 227.441 167.697 227.613C167.877 227.789 168.088 227.918 168.33 228C168.576 228.078 168.84 228.117 169.121 228.117C169.289 228.117 169.457 228.109 169.625 228.094C169.797 228.078 169.959 228.055 170.111 228.023C170.264 227.996 170.404 227.963 170.533 227.924C170.662 227.881 170.771 227.832 170.861 227.777L170.709 227.01C170.643 227.025 170.557 227.045 170.451 227.068C170.35 227.088 170.24 227.107 170.123 227.127C170.002 227.146 169.879 227.164 169.754 227.18C169.629 227.191 169.508 227.197 169.391 227.197C169.23 227.197 169.078 227.178 168.934 227.139C168.793 227.1 168.668 227.031 168.559 226.934C168.449 226.84 168.363 226.713 168.301 226.553C168.238 226.393 168.207 226.189 168.207 225.943V222.498H170.621V221.66H168.207V220.125Z" fill="black"/>
<path d="M158.354 100.646C158.158 100.451 157.842 100.451 157.646 100.646L154.464 103.828C154.269 104.024 154.269 104.34 154.464 104.536C154.66 104.731 154.976 104.731 155.172 104.536L158 101.707L160.828 104.536C161.024 104.731 161.34 104.731 161.536 104.536C161.731 104.34 161.731 104.024 161.536 103.828L158.354 100.646ZM158.5 126V101H157.5V126H158.5Z" fill="black"/>
<path d="M157.646 64.3536C157.842 64.5488 158.158 64.5488 158.354 64.3536L161.536 61.1716C161.731 60.9763 161.731 60.6597 161.536 60.4645C161.34 60.2692 161.024 60.2692 160.828 60.4645L158 63.2929L155.172 60.4645C154.976 60.2692 154.66 60.2692 154.464 60.4645C154.269 60.6597 154.269 60.9763 154.464 61.1716L157.646 64.3536ZM157.5 39V64H158.5V39H157.5Z" fill="black"/>
<path d="M14 17L14 227" stroke="black"/>
<path d="M6.18945 231V231.943H8.3457V239.062H6.18945V240H11.498V239.062H9.42969V231H6.18945ZM12.9219 236.771V236.9C12.9219 237.357 12.9883 237.781 13.1211 238.172C13.2539 238.562 13.4453 238.902 13.6953 239.191C13.9414 239.48 14.2422 239.707 14.5977 239.871C14.957 240.035 15.3613 240.117 15.8105 240.117C16.2559 240.117 16.6562 240.035 17.0117 239.871C17.3672 239.707 17.6699 239.48 17.9199 239.191C18.166 238.902 18.3555 238.562 18.4883 238.172C18.6211 237.781 18.6875 237.357 18.6875 236.9V236.771C18.6875 236.314 18.6211 235.891 18.4883 235.5C18.3555 235.105 18.166 234.764 17.9199 234.475C17.6699 234.186 17.3652 233.959 17.0059 233.795C16.6504 233.627 16.248 233.543 15.7988 233.543C15.3535 233.543 14.9531 233.627 14.5977 233.795C14.2422 233.959 13.9414 234.186 13.6953 234.475C13.4453 234.764 13.2539 235.105 13.1211 235.5C12.9883 235.891 12.9219 236.314 12.9219 236.771ZM14.0059 236.9V236.771C14.0059 236.463 14.043 236.168 14.1172 235.887C14.1914 235.602 14.3047 235.352 14.457 235.137C14.6055 234.922 14.791 234.752 15.0137 234.627C15.2363 234.498 15.498 234.434 15.7988 234.434C16.0996 234.434 16.3613 234.498 16.584 234.627C16.8105 234.752 17 234.922 17.1523 235.137C17.3008 235.352 17.4121 235.602 17.4863 235.887C17.5645 236.168 17.6035 236.463 17.6035 236.771V236.9C17.6035 237.213 17.5664 237.512 17.4922 237.797C17.418 238.078 17.3066 238.326 17.1582 238.541C17.0059 238.756 16.8164 238.926 16.5898 239.051C16.3672 239.176 16.1074 239.238 15.8105 239.238C15.5098 239.238 15.2461 239.176 15.0195 239.051C14.793 238.926 14.6055 238.756 14.457 238.541C14.3047 238.326 14.1914 238.078 14.1172 237.797C14.043 237.512 14.0059 237.213 14.0059 236.9ZM21.043 240H21.8984L22.877 236.115L23.0352 235.131L23.1992 236.115L24.1895 240H25.0449L26.3926 233.66H25.4316L24.7285 237.703L24.5703 238.699L24.4004 237.703L23.3926 233.66H22.6953L21.6816 237.703L21.5234 238.611L21.3945 237.703L20.6562 233.66H19.6953L21.043 240Z" fill="black"/>
<path d="M2.10352 8.60352V5H1.01953V14H2.10352V9.39453C2.18164 9.26953 2.26953 9.15625 2.36719 9.05469C2.46875 8.94922 2.57812 8.85742 2.69531 8.7793C2.84375 8.67773 3.00586 8.59961 3.18164 8.54492C3.35742 8.49023 3.54297 8.46289 3.73828 8.46289C3.97656 8.45898 4.1875 8.49219 4.37109 8.5625C4.55469 8.62891 4.70703 8.73047 4.82812 8.86719C4.94141 8.99219 5.02734 9.15039 5.08594 9.3418C5.14453 9.5293 5.17383 9.74805 5.17383 9.99805V14H6.25781V10.0098C6.25781 9.58398 6.20508 9.2168 6.09961 8.9082C5.99805 8.5957 5.85156 8.33789 5.66016 8.13477C5.46875 7.93164 5.23633 7.7832 4.96289 7.68945C4.69336 7.5918 4.39258 7.54297 4.06055 7.54297C3.80664 7.54688 3.56641 7.58398 3.33984 7.6543C3.11719 7.72461 2.91211 7.82812 2.72461 7.96484C2.60742 8.04688 2.49609 8.14258 2.39062 8.25195C2.28516 8.35742 2.18945 8.47461 2.10352 8.60352ZM8.39648 7.66016V8.60352H10.5527V13.0625H8.39648V14H13.7051V13.0625H11.6367V7.66016H8.39648ZM10.4121 5.99609C10.4121 6.17188 10.4648 6.31836 10.5703 6.43555C10.6797 6.55273 10.8438 6.61133 11.0625 6.61133C11.2773 6.61133 11.4395 6.55273 11.5488 6.43555C11.6582 6.31836 11.7129 6.17188 11.7129 5.99609C11.7129 5.89844 11.6973 5.80859 11.666 5.72656C11.6348 5.64453 11.5879 5.57617 11.5254 5.52148C11.4746 5.4707 11.4102 5.43164 11.332 5.4043C11.2539 5.37305 11.1641 5.35742 11.0625 5.35742C10.9609 5.35742 10.8691 5.37305 10.7871 5.4043C10.709 5.43164 10.6445 5.4707 10.5938 5.52148C10.5312 5.58008 10.4844 5.65039 10.4531 5.73242C10.4258 5.81445 10.4121 5.90234 10.4121 5.99609ZM15.2344 10.7773V10.9004C15.2344 11.3535 15.293 11.7773 15.4102 12.1719C15.5273 12.5625 15.6953 12.9023 15.9141 13.1914C16.1289 13.4805 16.3926 13.707 16.7051 13.8711C17.0176 14.0352 17.3672 14.1172 17.7539 14.1172C17.9844 14.1172 18.1992 14.0918 18.3984 14.041C18.5977 13.9941 18.7793 13.9258 18.9434 13.8359C19.0488 13.7773 19.1465 13.709 19.2363 13.6309C19.3301 13.5527 19.418 13.4668 19.5 13.373V13.918C19.5 14.1914 19.4609 14.4336 19.3828 14.6445C19.3047 14.8555 19.1934 15.0312 19.0488 15.1719C18.9004 15.3164 18.7227 15.4258 18.5156 15.5C18.3086 15.5742 18.0762 15.6113 17.8184 15.6113C17.6738 15.6113 17.5293 15.5957 17.3848 15.5645C17.2402 15.5371 17.0957 15.4902 16.9512 15.4238C16.8066 15.3574 16.6641 15.2676 16.5234 15.1543C16.3828 15.0449 16.2461 14.9102 16.1133 14.75L15.5508 15.4004C15.6953 15.6074 15.8672 15.7812 16.0664 15.9219C16.2695 16.0625 16.4805 16.1738 16.6992 16.2559C16.9141 16.3418 17.127 16.4023 17.3379 16.4375C17.5488 16.4766 17.7363 16.4961 17.9004 16.4961C18.2988 16.4961 18.6621 16.4375 18.9902 16.3203C19.3184 16.2031 19.6016 16.0312 19.8398 15.8047C20.0742 15.5781 20.2559 15.3027 20.3848 14.9785C20.5176 14.6543 20.584 14.2832 20.584 13.8652V7.66016H19.5996L19.5469 8.35156C19.4727 8.25781 19.3926 8.17188 19.3066 8.09375C19.2246 8.01562 19.1367 7.94727 19.043 7.88867C18.8711 7.77539 18.6777 7.68945 18.4629 7.63086C18.252 7.57227 18.0195 7.54297 17.7656 7.54297C17.3711 7.54297 17.0176 7.62305 16.7051 7.7832C16.3926 7.94336 16.127 8.16602 15.9082 8.45117C15.6895 8.73633 15.5215 9.07812 15.4043 9.47656C15.291 9.87109 15.2344 10.3047 15.2344 10.7773ZM16.3184 10.9004V10.7773C16.3184 10.4688 16.3496 10.1758 16.4121 9.89844C16.4785 9.61719 16.582 9.36914 16.7227 9.1543C16.8594 8.94336 17.0352 8.77539 17.25 8.65039C17.4688 8.52539 17.7305 8.46289 18.0352 8.46289C18.2148 8.46289 18.3789 8.48633 18.5273 8.5332C18.6758 8.57617 18.8105 8.63672 18.9316 8.71484C19.0527 8.79688 19.1602 8.89258 19.2539 9.00195C19.3477 9.11133 19.4297 9.23242 19.5 9.36523V12.2715C19.4297 12.4082 19.3477 12.5332 19.2539 12.6465C19.1602 12.7598 19.0547 12.8574 18.9375 12.9395C18.8164 13.0215 18.6797 13.0859 18.5273 13.1328C18.3789 13.1758 18.2109 13.1973 18.0234 13.1973C17.7227 13.1973 17.4648 13.1367 17.25 13.0156C17.0352 12.8906 16.8594 12.7227 16.7227 12.5117C16.582 12.3008 16.4785 12.0566 16.4121 11.7793C16.3496 11.502 16.3184 11.209 16.3184 10.9004ZM23.7246 8.60352V5H22.6406V14H23.7246V9.39453C23.8027 9.26953 23.8906 9.15625 23.9883 9.05469C24.0898 8.94922 24.1992 8.85742 24.3164 8.7793C24.4648 8.67773 24.627 8.59961 24.8027 8.54492C24.9785 8.49023 25.1641 8.46289 25.3594 8.46289C25.5977 8.45898 25.8086 8.49219 25.9922 8.5625C26.1758 8.62891 26.3281 8.73047 26.4492 8.86719C26.5625 8.99219 26.6484 9.15039 26.707 9.3418C26.7656 9.5293 26.7949 9.74805 26.7949 9.99805V14H27.8789V10.0098C27.8789 9.58398 27.8262 9.2168 27.7207 8.9082C27.6191 8.5957 27.4727 8.33789 27.2812 8.13477C27.0898 7.93164 26.8574 7.7832 26.584 7.68945C26.3145 7.5918 26.0137 7.54297 25.6816 7.54297C25.4277 7.54688 25.1875 7.58398 24.9609 7.6543C24.7383 7.72461 24.5332 7.82812 24.3457 7.96484C24.2285 8.04688 24.1172 8.14258 24.0117 8.25195C23.9062 8.35742 23.8105 8.47461 23.7246 8.60352Z" fill="black"/>
<path d="M144.484 22.8438C144.484 23.0781 144.434 23.2812 144.332 23.4531C144.23 23.6211 144.1 23.7598 143.939 23.8691C143.779 23.9824 143.596 24.0664 143.389 24.1211C143.186 24.1719 142.979 24.1973 142.768 24.1973C142.502 24.1973 142.256 24.1621 142.029 24.0918C141.807 24.0176 141.609 23.9082 141.438 23.7637C141.266 23.623 141.125 23.4512 141.016 23.248C140.906 23.041 140.834 22.8047 140.799 22.5391H139.691C139.703 22.9062 139.783 23.2402 139.932 23.541C140.084 23.8379 140.289 24.0977 140.547 24.3203C140.836 24.5781 141.176 24.7754 141.566 24.9121C141.961 25.0488 142.361 25.1172 142.768 25.1172C143.107 25.1172 143.447 25.0703 143.787 24.9766C144.127 24.8789 144.432 24.7344 144.701 24.543C144.971 24.3555 145.189 24.1191 145.357 23.834C145.529 23.5488 145.615 23.2148 145.615 22.832C145.615 22.4531 145.535 22.1191 145.375 21.8301C145.219 21.541 145.012 21.2969 144.754 21.0977C144.492 20.8828 144.203 20.707 143.887 20.5703C143.57 20.4297 143.254 20.3105 142.938 20.2129C142.746 20.1543 142.541 20.0859 142.322 20.0078C142.107 19.9297 141.908 19.832 141.725 19.7148C141.537 19.5977 141.383 19.4551 141.262 19.2871C141.141 19.1152 141.078 18.9062 141.074 18.6602C141.074 18.4336 141.119 18.2344 141.209 18.0625C141.303 17.8906 141.428 17.7461 141.584 17.6289C141.736 17.5117 141.91 17.4238 142.105 17.3652C142.305 17.3066 142.508 17.2773 142.715 17.2773C142.973 17.2773 143.203 17.3184 143.406 17.4004C143.613 17.4785 143.791 17.5898 143.939 17.7344C144.088 17.8789 144.207 18.0527 144.297 18.2559C144.387 18.4551 144.447 18.6777 144.479 18.9238H145.592C145.584 18.5332 145.5 18.1797 145.34 17.8633C145.18 17.5469 144.967 17.2773 144.701 17.0547C144.436 16.832 144.131 16.6602 143.787 16.5391C143.443 16.4141 143.086 16.3516 142.715 16.3516C142.379 16.3516 142.045 16.4043 141.713 16.5098C141.381 16.6113 141.084 16.7617 140.822 16.9609C140.561 17.1602 140.348 17.4043 140.184 17.6934C140.023 17.9824 139.943 18.3105 139.943 18.6777C139.943 19.0449 140.023 19.3652 140.184 19.6387C140.348 19.9082 140.559 20.1426 140.816 20.3418C141.07 20.5371 141.352 20.7051 141.66 20.8457C141.973 20.9824 142.279 21.0996 142.58 21.1973C142.787 21.2637 143.002 21.3379 143.225 21.4199C143.451 21.502 143.658 21.6035 143.846 21.7246C144.033 21.8496 144.186 22.002 144.303 22.1816C144.424 22.3613 144.484 22.582 144.484 22.8438ZM149.793 17.125H148.703V18.6602H147.039V19.498H148.703V22.9434C148.703 23.334 148.754 23.668 148.855 23.9453C148.961 24.2188 149.104 24.4414 149.283 24.6133C149.463 24.7891 149.674 24.918 149.916 25C150.162 25.0781 150.426 25.1172 150.707 25.1172C150.875 25.1172 151.043 25.1094 151.211 25.0938C151.383 25.0781 151.545 25.0547 151.697 25.0234C151.85 24.9961 151.99 24.9629 152.119 24.9238C152.248 24.8809 152.357 24.832 152.447 24.7773L152.295 24.0098C152.229 24.0254 152.143 24.0449 152.037 24.0684C151.936 24.0879 151.826 24.1074 151.709 24.127C151.588 24.1465 151.465 24.1641 151.34 24.1797C151.215 24.1914 151.094 24.1973 150.977 24.1973C150.816 24.1973 150.664 24.1777 150.52 24.1387C150.379 24.0996 150.254 24.0312 150.145 23.9336C150.035 23.8398 149.949 23.7129 149.887 23.5527C149.824 23.3926 149.793 23.1895 149.793 22.9434V19.498H152.207V18.6602H149.793V17.125ZM158.6 25H159.73V24.9062C159.66 24.7305 159.605 24.5254 159.566 24.291C159.527 24.0527 159.508 23.8281 159.508 23.6172V20.6699C159.508 20.3145 159.443 20.0039 159.314 19.7383C159.186 19.4727 159.01 19.25 158.787 19.0703C158.561 18.8945 158.293 18.7637 157.984 18.6777C157.676 18.5879 157.342 18.543 156.982 18.543C156.588 18.543 156.234 18.5977 155.922 18.707C155.613 18.8164 155.352 18.959 155.137 19.1348C154.918 19.3145 154.75 19.5156 154.633 19.7383C154.52 19.9609 154.461 20.1875 154.457 20.418H155.547C155.547 20.2852 155.578 20.1582 155.641 20.0371C155.707 19.9121 155.799 19.8047 155.916 19.7148C156.033 19.625 156.176 19.5527 156.344 19.498C156.516 19.4434 156.709 19.416 156.924 19.416C157.154 19.416 157.361 19.4453 157.545 19.5039C157.732 19.5625 157.891 19.6445 158.02 19.75C158.148 19.8594 158.248 19.9902 158.318 20.1426C158.389 20.2949 158.424 20.4668 158.424 20.6582V21.1562H157.24C156.799 21.1562 156.398 21.1992 156.039 21.2852C155.684 21.3711 155.379 21.5 155.125 21.6719C154.871 21.8477 154.674 22.0664 154.533 22.3281C154.396 22.5898 154.328 22.8945 154.328 23.2422C154.328 23.5078 154.379 23.7559 154.48 23.9863C154.586 24.2129 154.734 24.4082 154.926 24.5723C155.113 24.7402 155.342 24.873 155.611 24.9707C155.885 25.0684 156.189 25.1172 156.525 25.1172C156.732 25.1172 156.928 25.0957 157.111 25.0527C157.295 25.0098 157.469 24.9512 157.633 24.877C157.793 24.8027 157.939 24.7168 158.072 24.6191C158.209 24.5215 158.332 24.418 158.441 24.3086C158.453 24.4414 158.471 24.5703 158.494 24.6953C158.521 24.8164 158.557 24.918 158.6 25ZM156.684 24.1738C156.473 24.1738 156.287 24.1465 156.127 24.0918C155.967 24.0371 155.834 23.9609 155.729 23.8633C155.623 23.7695 155.543 23.6562 155.488 23.5234C155.438 23.3906 155.412 23.2461 155.412 23.0898C155.412 22.9258 155.441 22.7793 155.5 22.6504C155.562 22.5215 155.652 22.4102 155.77 22.3164C155.934 22.1836 156.154 22.0859 156.432 22.0234C156.713 21.957 157.041 21.9238 157.416 21.9238H158.424V23.207C158.361 23.332 158.275 23.4531 158.166 23.5703C158.057 23.6836 157.928 23.7852 157.779 23.875C157.627 23.9648 157.459 24.0371 157.275 24.0918C157.092 24.1465 156.895 24.1738 156.684 24.1738ZM164.342 24.2383C164.002 24.2383 163.717 24.1719 163.486 24.0391C163.26 23.9023 163.078 23.7246 162.941 23.5059C162.801 23.291 162.699 23.0488 162.637 22.7793C162.578 22.5059 162.549 22.2305 162.549 21.9531V21.707C162.549 21.4336 162.578 21.1621 162.637 20.8926C162.699 20.623 162.801 20.3789 162.941 20.1602C163.082 19.9453 163.266 19.7715 163.492 19.6387C163.723 19.502 164.006 19.4336 164.342 19.4336C164.561 19.4336 164.764 19.4707 164.951 19.5449C165.143 19.6191 165.307 19.7207 165.443 19.8496C165.58 19.9785 165.688 20.1289 165.766 20.3008C165.848 20.4688 165.891 20.6484 165.895 20.8398H166.92C166.92 20.5195 166.855 20.2188 166.727 19.9375C166.598 19.6562 166.42 19.4121 166.193 19.2051C165.963 19.002 165.689 18.8418 165.373 18.7246C165.061 18.6035 164.717 18.543 164.342 18.543C163.861 18.543 163.441 18.6289 163.082 18.8008C162.723 18.9727 162.424 19.2031 162.186 19.4922C161.943 19.7852 161.762 20.123 161.641 20.5059C161.52 20.8887 161.459 21.2891 161.459 21.707V21.9531C161.459 22.375 161.52 22.7773 161.641 23.1602C161.762 23.5391 161.943 23.873 162.186 24.1621C162.424 24.4551 162.723 24.6875 163.082 24.8594C163.441 25.0312 163.861 25.1172 164.342 25.1172C164.678 25.1172 165 25.0605 165.309 24.9473C165.617 24.8301 165.891 24.6738 166.129 24.4785C166.367 24.2871 166.557 24.0645 166.697 23.8105C166.842 23.5527 166.916 23.2832 166.92 23.002H165.895C165.891 23.1777 165.844 23.3418 165.754 23.4941C165.668 23.6426 165.553 23.7715 165.408 23.8809C165.264 23.9941 165.098 24.082 164.91 24.1445C164.727 24.207 164.537 24.2383 164.342 24.2383ZM170.746 22.041L173.072 25H174.449L171.49 21.3027L174.057 18.6602H172.738L170.658 20.7461L169.949 21.5078V16H168.859V25H169.949V22.8086L170.746 22.041Z" fill="black"/>
<defs>
<filter id="filter0_d_3_374" x="31.5" y="0.5" width="253" height="48" filterUnits="userSpaceOnUse" color-interpolation-filters="sRGB">
<feFlood flood-opacity="0" result="BackgroundImageFix"/>
<feColorMatrix in="SourceAlpha" type="matrix" values="0 0 0 0 0 0 0 0 0 0 0 0 0 0 0 0 0 0 127 0" result="hardAlpha"/>
<feOffset dy="4"/>
<feGaussianBlur stdDeviation="2"/>
<feComposite in2="hardAlpha" operator="out"/>
<feColorMatrix type="matrix" values="0 0 0 0 0 0 0 0 0 0 0 0 0 0 0 0 0 0 0.25 0"/>
<feBlend mode="normal" in2="BackgroundImageFix" result="effect1_dropShadow_3_374"/>
<feBlend mode="normal" in="SourceGraphic" in2="effect1_dropShadow_3_374" result="shape"/>
</filter>
<filter id="filter1_d_3_374" x="31.5" y="38.5" width="253" height="96" filterUnits="userSpaceOnUse" color-interpolation-filters="sRGB">
<feFlood flood-opacity="0" result="BackgroundImageFix"/>
<feColorMatrix in="SourceAlpha" type="matrix" values="0 0 0 0 0 0 0 0 0 0 0 0 0 0 0 0 0 0 127 0" result="hardAlpha"/>
<feOffset dy="4"/>
<feGaussianBlur stdDeviation="2"/>
<feComposite in2="hardAlpha" operator="out"/>
<feColorMatrix type="matrix" values="0 0 0 0 0 0 0 0 0 0 0 0 0 0 0 0 0 0 0.25 0"/>
<feBlend mode="normal" in2="BackgroundImageFix" result="effect1_dropShadow_3_374"/>
<feBlend mode="normal" in="SourceGraphic" in2="effect1_dropShadow_3_374" result="shape"/>
</filter>
<filter id="filter2_d_3_374" x="31.5" y="125.5" width="253" height="48" filterUnits="userSpaceOnUse" color-interpolation-filters="sRGB">
<feFlood flood-opacity="0" result="BackgroundImageFix"/>
<feColorMatrix in="SourceAlpha" type="matrix" values="0 0 0 0 0 0 0 0 0 0 0 0 0 0 0 0 0 0 127 0" result="hardAlpha"/>
<feOffset dy="4"/>
<feGaussianBlur stdDeviation="2"/>
<feComposite in2="hardAlpha" operator="out"/>
<feColorMatrix type="matrix" values="0 0 0 0 0 0 0 0 0 0 0 0 0 0 0 0 0 0 0.25 0"/>
<feBlend mode="normal" in2="BackgroundImageFix" result="effect1_dropShadow_3_374"/>
<feBlend mode="normal" in="SourceGraphic" in2="effect1_dropShadow_3_374" result="shape"/>
</filter>
<filter id="filter3_d_3_374" x="31.5" y="164.5" width="253" height="48" filterUnits="userSpaceOnUse" color-interpolation-filters="sRGB">
<feFlood flood-opacity="0" result="BackgroundImageFix"/>
<feColorMatrix in="SourceAlpha" type="matrix" values="0 0 0 0 0 0 0 0 0 0 0 0 0 0 0 0 0 0 127 0" result="hardAlpha"/>
<feOffset dy="4"/>
<feGaussianBlur stdDeviation="2"/>
<feComposite in2="hardAlpha" operator="out"/>
<feColorMatrix type="matrix" values="0 0 0 0 0 0 0 0 0 0 0 0 0 0 0 0 0 0 0.25 0"/>
<feBlend mode="normal" in2="BackgroundImageFix" result="effect1_dropShadow_3_374"/>
<feBlend mode="normal" in="SourceGraphic" in2="effect1_dropShadow_3_374" result="shape"/>
</filter>
<filter id="filter4_d_3_374" x="31.5" y="203.5" width="253" height="48" filterUnits="userSpaceOnUse" color-interpolation-filters="sRGB">
<feFlood flood-opacity="0" result="BackgroundImageFix"/>
<feColorMatrix in="SourceAlpha" type="matrix" values="0 0 0 0 0 0 0 0 0 0 0 0 0 0 0 0 0 0 127 0" result="hardAlpha"/>
<feOffset dy="4"/>
<feGaussianBlur stdDeviation="2"/>
<feComposite in2="hardAlpha" operator="out"/>
<feColorMatrix type="matrix" values="0 0 0 0 0 0 0 0 0 0 0 0 0 0 0 0 0 0 0.25 0"/>
<feBlend mode="normal" in2="BackgroundImageFix" result="effect1_dropShadow_3_374"/>
<feBlend mode="normal" in="SourceGraphic" in2="effect1_dropShadow_3_374" result="shape"/>
</filter>
</defs>
</svg>
